<svg width="443" height="884" viewBox="0 0 443 884" fill="none" xmlns="http://www.w3.org/2000/svg">
<rect x="207" y="109" width="15" height="759" fill="#8B52FE"/>
<circle cx="215" cy="60" r="60" fill="#8B52FE"/>
<circle cx="215" cy="60" r="45" fill="white"/>
<circle cx="214.5" cy="265.5" r="45.5" fill="white"/>
<circle cx="214.5" cy="265.5" r="39.3066" fill="#8B52FE"/>
<circle cx="214.5" cy="265.5" r="29.4799" fill="white"/>
<circle cx="214.5" cy="456.5" r="45.5" fill="white"/>
<circle cx="214.5" cy="456.5" r="39.3066" fill="#8B52FE"/>
<circle cx="214.5" cy="456.5" r="29.4799" fill="white"/>
<circle cx="214.5" cy="647.5" r="45.5" fill="white"/>
<circle cx="214.5" cy="647.5" r="39.3066" fill="#8B52FE"/>
<circle cx="214.5" cy="647.5" r="29.4799" fill="white"/>
<circle cx="214.5" cy="838.5" r="45.5" fill="white"/>
<circle cx="214.5" cy="838.5" r="39.3066" fill="#8B52FE"/>
<circle cx="214.5" cy="838.5" r="29.4799" fill="white"/>
<path d="M314.104 52.12L313.942 48.754L319.972 42.4H323.212L317.776 48.25L316.156 49.978L314.104 52.12ZM311.494 55V42.4H314.392V55H311.494ZM320.116 55L315.634 49.51L317.542 47.44L323.518 55H320.116ZM324.62 55V45.316H327.428V55H324.62ZM326.024 43.966C325.508 43.966 325.088 43.816 324.764 43.516C324.44 43.216 324.278 42.844 324.278 42.4C324.278 41.956 324.44 41.584 324.764 41.284C325.088 40.984 325.508 40.834 326.024 40.834C326.54 40.834 326.96 40.978 327.284 41.266C327.608 41.542 327.77 41.902 327.77 42.346C327.77 42.814 327.608 43.204 327.284 43.516C326.972 43.816 326.552 43.966 326.024 43.966ZM334.714 55.144C333.67 55.144 332.74 54.934 331.924 54.514C331.108 54.082 330.466 53.488 329.998 52.732C329.542 51.976 329.314 51.118 329.314 50.158C329.314 49.186 329.542 48.328 329.998 47.584C330.466 46.828 331.108 46.24 331.924 45.82C332.74 45.388 333.67 45.172 334.714 45.172C335.734 45.172 336.622 45.388 337.378 45.82C338.134 46.24 338.692 46.846 339.052 47.638L336.874 48.808C336.622 48.352 336.304 48.016 335.92 47.8C335.548 47.584 335.14 47.476 334.696 47.476C334.216 47.476 333.784 47.584 333.4 47.8C333.016 48.016 332.71 48.322 332.482 48.718C332.266 49.114 332.158 49.594 332.158 50.158C332.158 50.722 332.266 51.202 332.482 51.598C332.71 51.994 333.016 52.3 333.4 52.516C333.784 52.732 334.216 52.84 334.696 52.84C335.14 52.84 335.548 52.738 335.92 52.534C336.304 52.318 336.622 51.976 336.874 51.508L339.052 52.696C338.692 53.476 338.134 54.082 337.378 54.514C336.622 54.934 335.734 55.144 334.714 55.144ZM342.938 53.02L343.01 49.6L347.528 45.316H350.876L346.538 49.726L345.08 50.914L342.938 53.02ZM340.616 55V41.644H343.424V55H340.616ZM347.834 55L344.558 50.932L346.322 48.754L351.236 55H347.834ZM356.703 55.144C355.671 55.144 354.753 54.928 353.949 54.496C353.157 54.064 352.527 53.476 352.059 52.732C351.603 51.976 351.375 51.118 351.375 50.158C351.375 49.186 351.603 48.328 352.059 47.584C352.527 46.828 353.157 46.24 353.949 45.82C354.753 45.388 355.671 45.172 356.703 45.172C357.723 45.172 358.635 45.388 359.439 45.82C360.243 46.24 360.873 46.822 361.329 47.566C361.785 48.31 362.013 49.174 362.013 50.158C362.013 51.118 361.785 51.976 361.329 52.732C360.873 53.476 360.243 54.064 359.439 54.496C358.635 54.928 357.723 55.144 356.703 55.144ZM356.703 52.84C357.171 52.84 357.591 52.732 357.963 52.516C358.335 52.3 358.629 51.994 358.845 51.598C359.061 51.19 359.169 50.71 359.169 50.158C359.169 49.594 359.061 49.114 358.845 48.718C358.629 48.322 358.335 48.016 357.963 47.8C357.591 47.584 357.171 47.476 356.703 47.476C356.235 47.476 355.815 47.584 355.443 47.8C355.071 48.016 354.771 48.322 354.543 48.718C354.327 49.114 354.219 49.594 354.219 50.158C354.219 50.71 354.327 51.19 354.543 51.598C354.771 51.994 355.071 52.3 355.443 52.516C355.815 52.732 356.235 52.84 356.703 52.84ZM364.232 55V45.1C364.232 44.008 364.556 43.138 365.204 42.49C365.852 41.83 366.776 41.5 367.976 41.5C368.384 41.5 368.774 41.542 369.146 41.626C369.53 41.71 369.854 41.842 370.118 42.022L369.38 44.056C369.224 43.948 369.05 43.864 368.858 43.804C368.666 43.744 368.462 43.714 368.246 43.714C367.838 43.714 367.52 43.834 367.292 44.074C367.076 44.302 366.968 44.65 366.968 45.118V46.018L367.04 47.224V55H364.232ZM362.738 47.692V45.532H369.452V47.692H362.738ZM371.333 55V45.1C371.333 44.008 371.657 43.138 372.305 42.49C372.953 41.83 373.877 41.5 375.077 41.5C375.485 41.5 375.875 41.542 376.247 41.626C376.631 41.71 376.955 41.842 377.219 42.022L376.481 44.056C376.325 43.948 376.151 43.864 375.959 43.804C375.767 43.744 375.563 43.714 375.347 43.714C374.939 43.714 374.621 43.834 374.393 44.074C374.177 44.302 374.069 44.65 374.069 45.118V46.018L374.141 47.224V55H371.333ZM369.839 47.692V45.532H376.553V47.692H369.839Z" fill="#222027"/>
<path d="M309.93 78L314.34 68.2H316.132L320.556 78H318.652L314.858 69.166H315.586L311.806 78H309.93ZM311.96 75.732L312.45 74.304H317.742L318.232 75.732H311.96ZM325.778 78.098C325.172 78.098 324.616 77.958 324.112 77.678C323.618 77.398 323.221 76.978 322.922 76.418C322.633 75.8487 322.488 75.13 322.488 74.262C322.488 73.3847 322.628 72.666 322.908 72.106C323.198 71.546 323.59 71.1307 324.084 70.86C324.579 70.58 325.144 70.44 325.778 70.44C326.516 70.44 327.164 70.5987 327.724 70.916C328.294 71.2333 328.742 71.6767 329.068 72.246C329.404 72.8153 329.572 73.4873 329.572 74.262C329.572 75.0367 329.404 75.7133 329.068 76.292C328.742 76.8613 328.294 77.3047 327.724 77.622C327.164 77.9393 326.516 78.098 325.778 78.098ZM321.634 80.716V70.524H323.3V72.288L323.244 74.276L323.384 76.264V80.716H321.634ZM325.582 76.6C326.002 76.6 326.376 76.5067 326.702 76.32C327.038 76.1333 327.304 75.8627 327.5 75.508C327.696 75.1533 327.794 74.738 327.794 74.262C327.794 73.7767 327.696 73.3613 327.5 73.016C327.304 72.6613 327.038 72.3907 326.702 72.204C326.376 72.0173 326.002 71.924 325.582 71.924C325.162 71.924 324.784 72.0173 324.448 72.204C324.112 72.3907 323.846 72.6613 323.65 73.016C323.454 73.3613 323.356 73.7767 323.356 74.262C323.356 74.738 323.454 75.1533 323.65 75.508C323.846 75.8627 324.112 76.1333 324.448 76.32C324.784 76.5067 325.162 76.6 325.582 76.6ZM331.232 78V70.524H332.898V72.582L332.702 71.98C332.926 71.476 333.276 71.0933 333.752 70.832C334.237 70.5707 334.839 70.44 335.558 70.44V72.106C335.483 72.0873 335.413 72.078 335.348 72.078C335.283 72.0687 335.217 72.064 335.152 72.064C334.489 72.064 333.962 72.26 333.57 72.652C333.178 73.0347 332.982 73.6087 332.982 74.374V78H331.232ZM337.043 78V70.524H338.793V78H337.043ZM337.925 69.292C337.598 69.292 337.327 69.1893 337.113 68.984C336.907 68.7787 336.805 68.5313 336.805 68.242C336.805 67.9433 336.907 67.696 337.113 67.5C337.327 67.2947 337.598 67.192 337.925 67.192C338.251 67.192 338.517 67.29 338.723 67.486C338.937 67.6727 339.045 67.9107 339.045 68.2C339.045 68.508 338.942 68.7693 338.737 68.984C338.531 69.1893 338.261 69.292 337.925 69.292ZM341.089 78V67.612H342.839V78H341.089ZM352.561 78.14C351.787 78.14 351.087 77.944 350.461 77.552C349.845 77.16 349.36 76.5907 349.005 75.844C348.651 75.088 348.473 74.1733 348.473 73.1C348.473 72.0267 348.651 71.1167 349.005 70.37C349.36 69.614 349.845 69.04 350.461 68.648C351.087 68.256 351.787 68.06 352.561 68.06C353.345 68.06 354.045 68.256 354.661 68.648C355.277 69.04 355.763 69.614 356.117 70.37C356.481 71.1167 356.663 72.0267 356.663 73.1C356.663 74.1733 356.481 75.088 356.117 75.844C355.763 76.5907 355.277 77.16 354.661 77.552C354.045 77.944 353.345 78.14 352.561 78.14ZM352.561 76.558C353.019 76.558 353.415 76.4367 353.751 76.194C354.087 75.942 354.349 75.5593 354.535 75.046C354.731 74.5327 354.829 73.884 354.829 73.1C354.829 72.3067 354.731 71.658 354.535 71.154C354.349 70.6407 354.087 70.2627 353.751 70.02C353.415 69.768 353.019 69.642 352.561 69.642C352.123 69.642 351.731 69.768 351.385 70.02C351.049 70.2627 350.783 70.6407 350.587 71.154C350.401 71.658 350.307 72.3067 350.307 73.1C350.307 73.884 350.401 74.5327 350.587 75.046C350.783 75.5593 351.049 75.942 351.385 76.194C351.731 76.4367 352.123 76.558 352.561 76.558ZM357.754 78V76.782L361.646 73.086C361.972 72.778 362.215 72.5073 362.374 72.274C362.532 72.0407 362.635 71.826 362.682 71.63C362.738 71.4247 362.766 71.2333 362.766 71.056C362.766 70.608 362.612 70.2627 362.304 70.02C361.996 69.768 361.543 69.642 360.946 69.642C360.47 69.642 360.036 69.726 359.644 69.894C359.261 70.062 358.93 70.3187 358.65 70.664L357.376 69.684C357.758 69.1707 358.272 68.774 358.916 68.494C359.569 68.2047 360.297 68.06 361.1 68.06C361.809 68.06 362.425 68.1767 362.948 68.41C363.48 68.634 363.886 68.956 364.166 69.376C364.455 69.796 364.6 70.2953 364.6 70.874C364.6 71.1913 364.558 71.5087 364.474 71.826C364.39 72.134 364.231 72.4607 363.998 72.806C363.764 73.1513 363.424 73.5387 362.976 73.968L359.63 77.146L359.252 76.46H364.978V78H357.754ZM366.235 80.114L367.047 77.02L367.285 78.056C366.958 78.056 366.683 77.958 366.459 77.762C366.244 77.5567 366.137 77.2813 366.137 76.936C366.137 76.5813 366.244 76.3013 366.459 76.096C366.683 75.8813 366.953 75.774 367.271 75.774C367.597 75.774 367.868 75.8813 368.083 76.096C368.297 76.3107 368.405 76.5907 368.405 76.936C368.405 77.0293 368.395 77.132 368.377 77.244C368.358 77.3467 368.325 77.468 368.279 77.608C368.241 77.748 368.176 77.9253 368.083 78.14L367.369 80.114H366.235ZM375.02 78V68.9L375.818 69.726H372.948V68.2H376.84V78H375.02ZM378.658 78V76.782L382.55 73.086C382.877 72.778 383.119 72.5073 383.278 72.274C383.437 72.0407 383.539 71.826 383.586 71.63C383.642 71.4247 383.67 71.2333 383.67 71.056C383.67 70.608 383.516 70.2627 383.208 70.02C382.9 69.768 382.447 69.642 381.85 69.642C381.374 69.642 380.94 69.726 380.548 69.894C380.165 70.062 379.834 70.3187 379.554 70.664L378.28 69.684C378.663 69.1707 379.176 68.774 379.82 68.494C380.473 68.2047 381.201 68.06 382.004 68.06C382.713 68.06 383.329 68.1767 383.852 68.41C384.384 68.634 384.79 68.956 385.07 69.376C385.359 69.796 385.504 70.2953 385.504 70.874C385.504 71.1913 385.462 71.5087 385.378 71.826C385.294 72.134 385.135 72.4607 384.902 72.806C384.669 73.1513 384.328 73.5387 383.88 73.968L380.534 77.146L380.156 76.46H385.882V78H378.658ZM392.07 78V76.488L391.972 76.166V73.52C391.972 73.0067 391.818 72.61 391.51 72.33C391.202 72.0407 390.736 71.896 390.11 71.896C389.69 71.896 389.275 71.9613 388.864 72.092C388.463 72.2227 388.122 72.4047 387.842 72.638L387.156 71.364C387.558 71.056 388.034 70.8273 388.584 70.678C389.144 70.5193 389.723 70.44 390.32 70.44C391.403 70.44 392.238 70.7013 392.826 71.224C393.424 71.7373 393.722 72.5353 393.722 73.618V78H392.07ZM389.718 78.098C389.158 78.098 388.668 78.0047 388.248 77.818C387.828 77.622 387.502 77.356 387.268 77.02C387.044 76.6747 386.932 76.2873 386.932 75.858C386.932 75.438 387.03 75.06 387.226 74.724C387.432 74.388 387.763 74.122 388.22 73.926C388.678 73.73 389.284 73.632 390.04 73.632H392.21V74.794H390.166C389.569 74.794 389.168 74.892 388.962 75.088C388.757 75.2747 388.654 75.508 388.654 75.788C388.654 76.1053 388.78 76.3573 389.032 76.544C389.284 76.7307 389.634 76.824 390.082 76.824C390.512 76.824 390.894 76.726 391.23 76.53C391.576 76.334 391.823 76.0447 391.972 75.662L392.266 76.712C392.098 77.1507 391.795 77.4913 391.356 77.734C390.927 77.9767 390.381 78.098 389.718 78.098ZM405.404 70.44C406.002 70.44 406.529 70.5567 406.986 70.79C407.453 71.0233 407.817 71.3827 408.078 71.868C408.34 72.344 408.47 72.96 408.47 73.716V78H406.72V73.94C406.72 73.2773 406.576 72.7827 406.286 72.456C405.997 72.1293 405.582 71.966 405.04 71.966C404.658 71.966 404.317 72.05 404.018 72.218C403.729 72.386 403.5 72.6333 403.332 72.96C403.174 73.2867 403.094 73.702 403.094 74.206V78H401.344V73.94C401.344 73.2773 401.2 72.7827 400.91 72.456C400.621 72.1293 400.206 71.966 399.664 71.966C399.282 71.966 398.941 72.05 398.642 72.218C398.353 72.386 398.124 72.6333 397.956 72.96C397.798 73.2867 397.718 73.702 397.718 74.206V78H395.968V70.524H397.634V72.512L397.34 71.924C397.592 71.4387 397.956 71.07 398.432 70.818C398.918 70.566 399.468 70.44 400.084 70.44C400.784 70.44 401.391 70.6127 401.904 70.958C402.427 71.3033 402.772 71.826 402.94 72.526L402.254 72.288C402.497 71.728 402.898 71.28 403.458 70.944C404.018 70.608 404.667 70.44 405.404 70.44ZM416.424 72.274H421.296V73.772H416.424V72.274ZM416.564 76.474H422.094V78H414.744V68.2H421.898V69.726H416.564V76.474ZM424.123 78V68.2H428.407C429.471 68.2 430.404 68.4053 431.207 68.816C432.009 69.2267 432.635 69.796 433.083 70.524C433.531 71.252 433.755 72.1107 433.755 73.1C433.755 74.08 433.531 74.9387 433.083 75.676C432.635 76.404 432.009 76.9733 431.207 77.384C430.404 77.7947 429.471 78 428.407 78H424.123ZM425.943 76.46H428.323C429.06 76.46 429.695 76.32 430.227 76.04C430.768 75.76 431.183 75.368 431.473 74.864C431.771 74.36 431.921 73.772 431.921 73.1C431.921 72.4187 431.771 71.8307 431.473 71.336C431.183 70.832 430.768 70.44 430.227 70.16C429.695 69.88 429.06 69.74 428.323 69.74H425.943V76.46ZM437.54 78V69.74H434.292V68.2H442.608V69.74H439.36V78H437.54Z" fill="#68666F"/>
<path d="M5.518 261L1.396 248.4H4.42L8.002 259.56H6.49L10.234 248.4H12.934L16.534 259.56H15.076L18.748 248.4H21.538L17.416 261H14.284L11.098 251.208H11.926L8.65 261H5.518ZM26.8552 261.144C25.8232 261.144 24.9052 260.928 24.1012 260.496C23.3092 260.064 22.6792 259.476 22.2112 258.732C21.7552 257.976 21.5272 257.118 21.5272 256.158C21.5272 255.186 21.7552 254.328 22.2112 253.584C22.6792 252.828 23.3092 252.24 24.1012 251.82C24.9052 251.388 25.8232 251.172 26.8552 251.172C27.8752 251.172 28.7872 251.388 29.5912 251.82C30.3952 252.24 31.0252 252.822 31.4812 253.566C31.9372 254.31 32.1652 255.174 32.1652 256.158C32.1652 257.118 31.9372 257.976 31.4812 258.732C31.0252 259.476 30.3952 260.064 29.5912 260.496C28.7872 260.928 27.8752 261.144 26.8552 261.144ZM26.8552 258.84C27.3232 258.84 27.7432 258.732 28.1152 258.516C28.4872 258.3 28.7812 257.994 28.9972 257.598C29.2132 257.19 29.3212 256.71 29.3212 256.158C29.3212 255.594 29.2132 255.114 28.9972 254.718C28.7812 254.322 28.4872 254.016 28.1152 253.8C27.7432 253.584 27.3232 253.476 26.8552 253.476C26.3872 253.476 25.9672 253.584 25.5952 253.8C25.2232 254.016 24.9232 254.322 24.6952 254.718C24.4792 255.114 24.3712 255.594 24.3712 256.158C24.3712 256.71 24.4792 257.19 24.6952 257.598C24.9232 257.994 25.2232 258.3 25.5952 258.516C25.9672 258.732 26.3872 258.84 26.8552 258.84ZM34.0421 261V251.316H36.7241V254.052L36.3461 253.26C36.6341 252.576 37.0961 252.06 37.7321 251.712C38.3681 251.352 39.1421 251.172 40.0541 251.172V253.764C39.9341 253.752 39.8261 253.746 39.7301 253.746C39.6341 253.734 39.5321 253.728 39.4241 253.728C38.6561 253.728 38.0321 253.95 37.5521 254.394C37.0841 254.826 36.8501 255.504 36.8501 256.428V261H34.0421ZM44.0633 259.02L44.1353 255.6L48.6533 251.316H52.0013L47.6633 255.726L46.2053 256.914L44.0633 259.02ZM41.7413 261V247.644H44.5493V261H41.7413ZM48.9593 261L45.6833 256.932L47.4473 254.754L52.3613 261H48.9593ZM56.5657 261.144C55.7377 261.144 54.9397 261.048 54.1717 260.856C53.4157 260.652 52.8157 260.4 52.3717 260.1L53.3077 258.084C53.7517 258.36 54.2737 258.588 54.8737 258.768C55.4857 258.936 56.0857 259.02 56.6737 259.02C57.3217 259.02 57.7777 258.942 58.0417 258.786C58.3177 258.63 58.4557 258.414 58.4557 258.138C58.4557 257.91 58.3477 257.742 58.1317 257.634C57.9277 257.514 57.6517 257.424 57.3037 257.364C56.9557 257.304 56.5717 257.244 56.1517 257.184C55.7437 257.124 55.3297 257.046 54.9097 256.95C54.4897 256.842 54.1057 256.686 53.7577 256.482C53.4097 256.278 53.1277 256.002 52.9117 255.654C52.7077 255.306 52.6057 254.856 52.6057 254.304C52.6057 253.692 52.7797 253.152 53.1277 252.684C53.4877 252.216 54.0037 251.85 54.6757 251.586C55.3477 251.31 56.1517 251.172 57.0877 251.172C57.7477 251.172 58.4197 251.244 59.1037 251.388C59.7877 251.532 60.3577 251.742 60.8137 252.018L59.8777 254.016C59.4097 253.74 58.9357 253.554 58.4557 253.458C57.9877 253.35 57.5317 253.296 57.0877 253.296C56.4637 253.296 56.0077 253.38 55.7197 253.548C55.4317 253.716 55.2877 253.932 55.2877 254.196C55.2877 254.436 55.3897 254.616 55.5937 254.736C55.8097 254.856 56.0917 254.952 56.4397 255.024C56.7877 255.096 57.1657 255.162 57.5737 255.222C57.9937 255.27 58.4137 255.348 58.8337 255.456C59.2537 255.564 59.6317 255.72 59.9677 255.924C60.3157 256.116 60.5977 256.386 60.8137 256.734C61.0297 257.07 61.1377 257.514 61.1377 258.066C61.1377 258.666 60.9577 259.2 60.5977 259.668C60.2377 260.124 59.7157 260.484 59.0317 260.748C58.3597 261.012 57.5377 261.144 56.5657 261.144ZM68.7562 251.172C69.5242 251.172 70.2082 251.328 70.8082 251.64C71.4202 251.94 71.9002 252.408 72.2482 253.044C72.5962 253.668 72.7702 254.472 72.7702 255.456V261H69.9622V255.888C69.9622 255.108 69.7882 254.532 69.4402 254.16C69.1042 253.788 68.6242 253.602 68.0002 253.602C67.5562 253.602 67.1542 253.698 66.7942 253.89C66.4462 254.07 66.1702 254.352 65.9662 254.736C65.7742 255.12 65.6782 255.612 65.6782 256.212V261H62.8702V247.644H65.6782V253.998L65.0482 253.188C65.3962 252.54 65.8942 252.042 66.5422 251.694C67.1902 251.346 67.9282 251.172 68.7562 251.172ZM79.9938 261.144C78.9618 261.144 78.0438 260.928 77.2398 260.496C76.4478 260.064 75.8178 259.476 75.3498 258.732C74.8938 257.976 74.6658 257.118 74.6658 256.158C74.6658 255.186 74.8938 254.328 75.3498 253.584C75.8178 252.828 76.4478 252.24 77.2398 251.82C78.0438 251.388 78.9618 251.172 79.9938 251.172C81.0138 251.172 81.9258 251.388 82.7298 251.82C83.5338 252.24 84.1638 252.822 84.6198 253.566C85.0758 254.31 85.3038 255.174 85.3038 256.158C85.3038 257.118 85.0758 257.976 84.6198 258.732C84.1638 259.476 83.5338 260.064 82.7298 260.496C81.9258 260.928 81.0138 261.144 79.9938 261.144ZM79.9938 258.84C80.4618 258.84 80.8818 258.732 81.2538 258.516C81.6258 258.3 81.9198 257.994 82.1358 257.598C82.3518 257.19 82.4598 256.71 82.4598 256.158C82.4598 255.594 82.3518 255.114 82.1358 254.718C81.9198 254.322 81.6258 254.016 81.2538 253.8C80.8818 253.584 80.4618 253.476 79.9938 253.476C79.5258 253.476 79.1058 253.584 78.7338 253.8C78.3618 254.016 78.0618 254.322 77.8338 254.718C77.6178 255.114 77.5098 255.594 77.5098 256.158C77.5098 256.71 77.6178 257.19 77.8338 257.598C78.0618 257.994 78.3618 258.3 78.7338 258.516C79.1058 258.732 79.5258 258.84 79.9938 258.84ZM92.9048 261.144C92.0888 261.144 91.3748 260.964 90.7628 260.604C90.1508 260.244 89.6708 259.698 89.3228 258.966C88.9868 258.222 88.8188 257.286 88.8188 256.158C88.8188 255.018 88.9808 254.082 89.3048 253.35C89.6288 252.618 90.0968 252.072 90.7088 251.712C91.3208 251.352 92.0528 251.172 92.9048 251.172C93.8168 251.172 94.6328 251.382 95.3528 251.802C96.0848 252.21 96.6608 252.786 97.0808 253.53C97.5128 254.274 97.7288 255.15 97.7288 256.158C97.7288 257.178 97.5128 258.06 97.0808 258.804C96.6608 259.548 96.0848 260.124 95.3528 260.532C94.6328 260.94 93.8168 261.144 92.9048 261.144ZM87.1808 264.492V251.316H89.8628V253.296L89.8088 256.176L89.9888 259.038V264.492H87.1808ZM92.4188 258.84C92.8868 258.84 93.3008 258.732 93.6608 258.516C94.0328 258.3 94.3268 257.994 94.5428 257.598C94.7708 257.19 94.8848 256.71 94.8848 256.158C94.8848 255.594 94.7708 255.114 94.5428 254.718C94.3268 254.322 94.0328 254.016 93.6608 253.8C93.3008 253.584 92.8868 253.476 92.4188 253.476C91.9508 253.476 91.5308 253.584 91.1588 253.8C90.7868 254.016 90.4928 254.322 90.2768 254.718C90.0608 255.114 89.9528 255.594 89.9528 256.158C89.9528 256.71 90.0608 257.19 90.2768 257.598C90.4928 257.994 90.7868 258.3 91.1588 258.516C91.5308 258.732 91.9508 258.84 92.4188 258.84Z" fill="#222027"/>
<path d="M0.93 284L5.34 274.2H7.132L11.556 284H9.652L5.858 275.166H6.586L2.806 284H0.93ZM2.96 281.732L3.45 280.304H8.742L9.232 281.732H2.96ZM16.7783 284.098C16.1717 284.098 15.6163 283.958 15.1123 283.678C14.6177 283.398 14.221 282.978 13.9223 282.418C13.633 281.849 13.4883 281.13 13.4883 280.262C13.4883 279.385 13.6283 278.666 13.9083 278.106C14.1977 277.546 14.5897 277.131 15.0843 276.86C15.579 276.58 16.1437 276.44 16.7783 276.44C17.5157 276.44 18.1643 276.599 18.7243 276.916C19.2937 277.233 19.7417 277.677 20.0683 278.246C20.4043 278.815 20.5723 279.487 20.5723 280.262C20.5723 281.037 20.4043 281.713 20.0683 282.292C19.7417 282.861 19.2937 283.305 18.7243 283.622C18.1643 283.939 17.5157 284.098 16.7783 284.098ZM12.6343 286.716V276.524H14.3003V278.288L14.2443 280.276L14.3843 282.264V286.716H12.6343ZM16.5823 282.6C17.0023 282.6 17.3757 282.507 17.7023 282.32C18.0383 282.133 18.3043 281.863 18.5003 281.508C18.6963 281.153 18.7943 280.738 18.7943 280.262C18.7943 279.777 18.6963 279.361 18.5003 279.016C18.3043 278.661 18.0383 278.391 17.7023 278.204C17.3757 278.017 17.0023 277.924 16.5823 277.924C16.1623 277.924 15.7843 278.017 15.4483 278.204C15.1123 278.391 14.8463 278.661 14.6503 279.016C14.4543 279.361 14.3563 279.777 14.3563 280.262C14.3563 280.738 14.4543 281.153 14.6503 281.508C14.8463 281.863 15.1123 282.133 15.4483 282.32C15.7843 282.507 16.1623 282.6 16.5823 282.6ZM22.232 284V276.524H23.898V278.582L23.702 277.98C23.926 277.476 24.276 277.093 24.752 276.832C25.2373 276.571 25.8393 276.44 26.558 276.44V278.106C26.4833 278.087 26.4133 278.078 26.348 278.078C26.2827 278.069 26.2173 278.064 26.152 278.064C25.4893 278.064 24.962 278.26 24.57 278.652C24.178 279.035 23.982 279.609 23.982 280.374V284H22.232ZM28.0425 284V276.524H29.7925V284H28.0425ZM28.9245 275.292C28.5979 275.292 28.3272 275.189 28.1125 274.984C27.9072 274.779 27.8045 274.531 27.8045 274.242C27.8045 273.943 27.9072 273.696 28.1125 273.5C28.3272 273.295 28.5979 273.192 28.9245 273.192C29.2512 273.192 29.5172 273.29 29.7225 273.486C29.9372 273.673 30.0445 273.911 30.0445 274.2C30.0445 274.508 29.9419 274.769 29.7365 274.984C29.5312 275.189 29.2605 275.292 28.9245 275.292ZM32.0894 284V273.612H33.8394V284H32.0894ZM43.5614 284.14C42.7868 284.14 42.0868 283.944 41.4614 283.552C40.8454 283.16 40.3601 282.591 40.0054 281.844C39.6508 281.088 39.4734 280.173 39.4734 279.1C39.4734 278.027 39.6508 277.117 40.0054 276.37C40.3601 275.614 40.8454 275.04 41.4614 274.648C42.0868 274.256 42.7868 274.06 43.5614 274.06C44.3454 274.06 45.0454 274.256 45.6614 274.648C46.2774 275.04 46.7628 275.614 47.1174 276.37C47.4814 277.117 47.6634 278.027 47.6634 279.1C47.6634 280.173 47.4814 281.088 47.1174 281.844C46.7628 282.591 46.2774 283.16 45.6614 283.552C45.0454 283.944 44.3454 284.14 43.5614 284.14ZM43.5614 282.558C44.0188 282.558 44.4154 282.437 44.7514 282.194C45.0874 281.942 45.3488 281.559 45.5354 281.046C45.7314 280.533 45.8294 279.884 45.8294 279.1C45.8294 278.307 45.7314 277.658 45.5354 277.154C45.3488 276.641 45.0874 276.263 44.7514 276.02C44.4154 275.768 44.0188 275.642 43.5614 275.642C43.1228 275.642 42.7308 275.768 42.3854 276.02C42.0494 276.263 41.7834 276.641 41.5874 277.154C41.4008 277.658 41.3074 278.307 41.3074 279.1C41.3074 279.884 41.4008 280.533 41.5874 281.046C41.7834 281.559 42.0494 281.942 42.3854 282.194C42.7308 282.437 43.1228 282.558 43.5614 282.558ZM48.7537 284V282.782L52.6457 279.086C52.9723 278.778 53.215 278.507 53.3737 278.274C53.5323 278.041 53.635 277.826 53.6817 277.63C53.7377 277.425 53.7657 277.233 53.7657 277.056C53.7657 276.608 53.6117 276.263 53.3037 276.02C52.9957 275.768 52.543 275.642 51.9457 275.642C51.4697 275.642 51.0357 275.726 50.6437 275.894C50.261 276.062 49.9297 276.319 49.6497 276.664L48.3757 275.684C48.7583 275.171 49.2717 274.774 49.9157 274.494C50.569 274.205 51.297 274.06 52.0997 274.06C52.809 274.06 53.425 274.177 53.9477 274.41C54.4797 274.634 54.8857 274.956 55.1657 275.376C55.455 275.796 55.5997 276.295 55.5997 276.874C55.5997 277.191 55.5577 277.509 55.4737 277.826C55.3897 278.134 55.231 278.461 54.9977 278.806C54.7643 279.151 54.4237 279.539 53.9757 279.968L50.6297 283.146L50.2517 282.46H55.9777V284H48.7537ZM57.2348 286.114L58.0468 283.02L58.2848 284.056C57.9582 284.056 57.6828 283.958 57.4588 283.762C57.2442 283.557 57.1368 283.281 57.1368 282.936C57.1368 282.581 57.2442 282.301 57.4588 282.096C57.6828 281.881 57.9535 281.774 58.2708 281.774C58.5975 281.774 58.8682 281.881 59.0828 282.096C59.2975 282.311 59.4048 282.591 59.4048 282.936C59.4048 283.029 59.3955 283.132 59.3768 283.244C59.3582 283.347 59.3255 283.468 59.2788 283.608C59.2415 283.748 59.1762 283.925 59.0828 284.14L58.3688 286.114H57.2348ZM66.0199 284V274.9L66.8179 275.726H63.9479V274.2H67.8399V284H66.0199ZM69.658 284V282.782L73.55 279.086C73.8766 278.778 74.1193 278.507 74.278 278.274C74.4366 278.041 74.5393 277.826 74.586 277.63C74.642 277.425 74.67 277.233 74.67 277.056C74.67 276.608 74.516 276.263 74.208 276.02C73.9 275.768 73.4473 275.642 72.85 275.642C72.374 275.642 71.94 275.726 71.548 275.894C71.1653 276.062 70.834 276.319 70.554 276.664L69.28 275.684C69.6626 275.171 70.176 274.774 70.82 274.494C71.4733 274.205 72.2013 274.06 73.004 274.06C73.7133 274.06 74.3293 274.177 74.852 274.41C75.384 274.634 75.79 274.956 76.07 275.376C76.3593 275.796 76.504 276.295 76.504 276.874C76.504 277.191 76.462 277.509 76.378 277.826C76.294 278.134 76.1353 278.461 75.902 278.806C75.6686 279.151 75.328 279.539 74.88 279.968L71.534 283.146L71.156 282.46H76.882V284H69.658ZM83.0704 284V282.488L82.9724 282.166V279.52C82.9724 279.007 82.8184 278.61 82.5104 278.33C82.2024 278.041 81.7357 277.896 81.1104 277.896C80.6904 277.896 80.2751 277.961 79.8644 278.092C79.4631 278.223 79.1224 278.405 78.8424 278.638L78.1564 277.364C78.5577 277.056 79.0337 276.827 79.5844 276.678C80.1444 276.519 80.7231 276.44 81.3204 276.44C82.4031 276.44 83.2384 276.701 83.8264 277.224C84.4237 277.737 84.7224 278.535 84.7224 279.618V284H83.0704ZM80.7184 284.098C80.1584 284.098 79.6684 284.005 79.2484 283.818C78.8284 283.622 78.5017 283.356 78.2684 283.02C78.0444 282.675 77.9324 282.287 77.9324 281.858C77.9324 281.438 78.0304 281.06 78.2264 280.724C78.4317 280.388 78.7631 280.122 79.2204 279.926C79.6777 279.73 80.2844 279.632 81.0404 279.632H83.2104V280.794H81.1664C80.5691 280.794 80.1677 280.892 79.9624 281.088C79.7571 281.275 79.6544 281.508 79.6544 281.788C79.6544 282.105 79.7804 282.357 80.0324 282.544C80.2844 282.731 80.6344 282.824 81.0824 282.824C81.5117 282.824 81.8944 282.726 82.2304 282.53C82.5757 282.334 82.8231 282.045 82.9724 281.662L83.2664 282.712C83.0984 283.151 82.7951 283.491 82.3564 283.734C81.9271 283.977 81.3811 284.098 80.7184 284.098ZM96.4043 276.44C97.0016 276.44 97.529 276.557 97.9863 276.79C98.453 277.023 98.817 277.383 99.0783 277.868C99.3396 278.344 99.4703 278.96 99.4703 279.716V284H97.7203V279.94C97.7203 279.277 97.5756 278.783 97.2863 278.456C96.997 278.129 96.5816 277.966 96.0403 277.966C95.6576 277.966 95.317 278.05 95.0183 278.218C94.729 278.386 94.5003 278.633 94.3323 278.96C94.1736 279.287 94.0943 279.702 94.0943 280.206V284H92.3443V279.94C92.3443 279.277 92.1996 278.783 91.9103 278.456C91.621 278.129 91.2056 277.966 90.6643 277.966C90.2816 277.966 89.941 278.05 89.6423 278.218C89.353 278.386 89.1243 278.633 88.9563 278.96C88.7976 279.287 88.7183 279.702 88.7183 280.206V284H86.9683V276.524H88.6343V278.512L88.3403 277.924C88.5923 277.439 88.9563 277.07 89.4323 276.818C89.9176 276.566 90.4683 276.44 91.0843 276.44C91.7843 276.44 92.391 276.613 92.9043 276.958C93.427 277.303 93.7723 277.826 93.9403 278.526L93.2543 278.288C93.497 277.728 93.8983 277.28 94.4583 276.944C95.0183 276.608 95.667 276.44 96.4043 276.44ZM107.424 278.274H112.296V279.772H107.424V278.274ZM107.564 282.474H113.094V284H105.744V274.2H112.898V275.726H107.564V282.474ZM115.123 284V274.2H119.407C120.471 274.2 121.404 274.405 122.207 274.816C123.009 275.227 123.635 275.796 124.083 276.524C124.531 277.252 124.755 278.111 124.755 279.1C124.755 280.08 124.531 280.939 124.083 281.676C123.635 282.404 123.009 282.973 122.207 283.384C121.404 283.795 120.471 284 119.407 284H115.123ZM116.943 282.46H119.323C120.06 282.46 120.695 282.32 121.227 282.04C121.768 281.76 122.183 281.368 122.473 280.864C122.771 280.36 122.921 279.772 122.921 279.1C122.921 278.419 122.771 277.831 122.473 277.336C122.183 276.832 121.768 276.44 121.227 276.16C120.695 275.88 120.06 275.74 119.323 275.74H116.943V282.46ZM128.54 284V275.74H125.292V274.2H133.608V275.74H130.36V284H128.54Z" fill="#68666F"/>
<path d="M300.634 452.216C299.626 452.216 298.66 452.084 297.736 451.82C296.812 451.544 296.068 451.19 295.504 450.758L296.494 448.562C297.034 448.946 297.67 449.264 298.402 449.516C299.146 449.756 299.896 449.876 300.652 449.876C301.228 449.876 301.69 449.822 302.038 449.714C302.398 449.594 302.662 449.432 302.83 449.228C302.998 449.024 303.082 448.79 303.082 448.526C303.082 448.19 302.95 447.926 302.686 447.734C302.422 447.53 302.074 447.368 301.642 447.248C301.21 447.116 300.73 446.996 300.202 446.888C299.686 446.768 299.164 446.624 298.636 446.456C298.12 446.288 297.646 446.072 297.214 445.808C296.782 445.544 296.428 445.196 296.152 444.764C295.888 444.332 295.756 443.78 295.756 443.108C295.756 442.388 295.948 441.734 296.332 441.146C296.728 440.546 297.316 440.072 298.096 439.724C298.888 439.364 299.878 439.184 301.066 439.184C301.858 439.184 302.638 439.28 303.406 439.472C304.174 439.652 304.852 439.928 305.44 440.3L304.54 442.514C303.952 442.178 303.364 441.932 302.776 441.776C302.188 441.608 301.612 441.524 301.048 441.524C300.484 441.524 300.022 441.59 299.662 441.722C299.302 441.854 299.044 442.028 298.888 442.244C298.732 442.448 298.654 442.688 298.654 442.964C298.654 443.288 298.786 443.552 299.05 443.756C299.314 443.948 299.662 444.104 300.094 444.224C300.526 444.344 301 444.464 301.516 444.584C302.044 444.704 302.566 444.842 303.082 444.998C303.61 445.154 304.09 445.364 304.522 445.628C304.954 445.892 305.302 446.24 305.566 446.672C305.842 447.104 305.98 447.65 305.98 448.31C305.98 449.018 305.782 449.666 305.386 450.254C304.99 450.842 304.396 451.316 303.604 451.676C302.824 452.036 301.834 452.216 300.634 452.216ZM311.861 452.144C311.057 452.144 310.337 451.988 309.701 451.676C309.077 451.364 308.591 450.89 308.243 450.254C307.895 449.606 307.721 448.784 307.721 447.788V442.316H310.529V447.374C310.529 448.178 310.697 448.772 311.033 449.156C311.381 449.528 311.867 449.714 312.491 449.714C312.923 449.714 313.307 449.624 313.643 449.444C313.979 449.252 314.243 448.964 314.435 448.58C314.627 448.184 314.723 447.692 314.723 447.104V442.316H317.531V452H314.867V449.336L315.353 450.11C315.029 450.782 314.549 451.292 313.913 451.64C313.289 451.976 312.605 452.144 311.861 452.144ZM325.856 452.144C325.004 452.144 324.272 451.964 323.66 451.604C323.048 451.244 322.58 450.698 322.256 449.966C321.932 449.222 321.77 448.286 321.77 447.158C321.77 446.018 321.938 445.082 322.274 444.35C322.622 443.618 323.102 443.072 323.714 442.712C324.326 442.352 325.04 442.172 325.856 442.172C326.768 442.172 327.584 442.376 328.304 442.784C329.036 443.192 329.612 443.768 330.032 444.512C330.464 445.256 330.68 446.138 330.68 447.158C330.68 448.166 330.464 449.042 330.032 449.786C329.612 450.53 329.036 451.112 328.304 451.532C327.584 451.94 326.768 452.144 325.856 452.144ZM320.132 452V438.644H322.94V444.278L322.76 447.14L322.814 450.02V452H320.132ZM325.37 449.84C325.838 449.84 326.252 449.732 326.612 449.516C326.984 449.3 327.278 448.994 327.494 448.598C327.722 448.19 327.836 447.71 327.836 447.158C327.836 446.594 327.722 446.114 327.494 445.718C327.278 445.322 326.984 445.016 326.612 444.8C326.252 444.584 325.838 444.476 325.37 444.476C324.902 444.476 324.482 444.584 324.11 444.8C323.738 445.016 323.444 445.322 323.228 445.718C323.012 446.114 322.904 446.594 322.904 447.158C322.904 447.71 323.012 448.19 323.228 448.598C323.444 448.994 323.738 449.3 324.11 449.516C324.482 449.732 324.902 449.84 325.37 449.84ZM344.962 442.172C345.73 442.172 346.408 442.328 346.996 442.64C347.596 442.94 348.064 443.408 348.4 444.044C348.748 444.668 348.922 445.472 348.922 446.456V452H346.114V446.888C346.114 446.108 345.952 445.532 345.628 445.16C345.304 444.788 344.848 444.602 344.26 444.602C343.852 444.602 343.486 444.698 343.162 444.89C342.838 445.07 342.586 445.346 342.406 445.718C342.226 446.09 342.136 446.564 342.136 447.14V452H339.328V446.888C339.328 446.108 339.166 445.532 338.842 445.16C338.53 444.788 338.08 444.602 337.492 444.602C337.084 444.602 336.718 444.698 336.394 444.89C336.07 445.07 335.818 445.346 335.638 445.718C335.458 446.09 335.368 446.564 335.368 447.14V452H332.56V442.316H335.242V444.962L334.738 444.188C335.074 443.528 335.548 443.03 336.16 442.694C336.784 442.346 337.492 442.172 338.284 442.172C339.172 442.172 339.946 442.4 340.606 442.856C341.278 443.3 341.722 443.984 341.938 444.908L340.948 444.638C341.272 443.882 341.788 443.282 342.496 442.838C343.216 442.394 344.038 442.172 344.962 442.172ZM351.439 452V442.316H354.247V452H351.439ZM352.843 440.966C352.327 440.966 351.907 440.816 351.583 440.516C351.259 440.216 351.097 439.844 351.097 439.4C351.097 438.956 351.259 438.584 351.583 438.284C351.907 437.984 352.327 437.834 352.843 437.834C353.359 437.834 353.779 437.978 354.103 438.266C354.427 438.542 354.589 438.902 354.589 439.346C354.589 439.814 354.427 440.204 354.103 440.516C353.791 440.816 353.371 440.966 352.843 440.966ZM360.111 452.144C359.283 452.144 358.485 452.048 357.717 451.856C356.961 451.652 356.361 451.4 355.917 451.1L356.853 449.084C357.297 449.36 357.819 449.588 358.419 449.768C359.031 449.936 359.631 450.02 360.219 450.02C360.867 450.02 361.323 449.942 361.587 449.786C361.863 449.63 362.001 449.414 362.001 449.138C362.001 448.91 361.893 448.742 361.677 448.634C361.473 448.514 361.197 448.424 360.849 448.364C360.501 448.304 360.117 448.244 359.697 448.184C359.289 448.124 358.875 448.046 358.455 447.95C358.035 447.842 357.651 447.686 357.303 447.482C356.955 447.278 356.673 447.002 356.457 446.654C356.253 446.306 356.151 445.856 356.151 445.304C356.151 444.692 356.325 444.152 356.673 443.684C357.033 443.216 357.549 442.85 358.221 442.586C358.893 442.31 359.697 442.172 360.633 442.172C361.293 442.172 361.965 442.244 362.649 442.388C363.333 442.532 363.903 442.742 364.359 443.018L363.423 445.016C362.955 444.74 362.481 444.554 362.001 444.458C361.533 444.35 361.077 444.296 360.633 444.296C360.009 444.296 359.553 444.38 359.265 444.548C358.977 444.716 358.833 444.932 358.833 445.196C358.833 445.436 358.935 445.616 359.139 445.736C359.355 445.856 359.637 445.952 359.985 446.024C360.333 446.096 360.711 446.162 361.119 446.222C361.539 446.27 361.959 446.348 362.379 446.456C362.799 446.564 363.177 446.72 363.513 446.924C363.861 447.116 364.143 447.386 364.359 447.734C364.575 448.07 364.683 448.514 364.683 449.066C364.683 449.666 364.503 450.2 364.143 450.668C363.783 451.124 363.261 451.484 362.577 451.748C361.905 452.012 361.083 452.144 360.111 452.144ZM369.673 452.144C368.845 452.144 368.047 452.048 367.279 451.856C366.523 451.652 365.923 451.4 365.479 451.1L366.415 449.084C366.859 449.36 367.381 449.588 367.981 449.768C368.593 449.936 369.193 450.02 369.781 450.02C370.429 450.02 370.885 449.942 371.149 449.786C371.425 449.63 371.563 449.414 371.563 449.138C371.563 448.91 371.455 448.742 371.239 448.634C371.035 448.514 370.759 448.424 370.411 448.364C370.063 448.304 369.679 448.244 369.259 448.184C368.851 448.124 368.437 448.046 368.017 447.95C367.597 447.842 367.213 447.686 366.865 447.482C366.517 447.278 366.235 447.002 366.019 446.654C365.815 446.306 365.713 445.856 365.713 445.304C365.713 444.692 365.887 444.152 366.235 443.684C366.595 443.216 367.111 442.85 367.783 442.586C368.455 442.31 369.259 442.172 370.195 442.172C370.855 442.172 371.527 442.244 372.211 442.388C372.895 442.532 373.465 442.742 373.921 443.018L372.985 445.016C372.517 444.74 372.043 444.554 371.563 444.458C371.095 444.35 370.639 444.296 370.195 444.296C369.571 444.296 369.115 444.38 368.827 444.548C368.539 444.716 368.395 444.932 368.395 445.196C368.395 445.436 368.497 445.616 368.701 445.736C368.917 445.856 369.199 445.952 369.547 446.024C369.895 446.096 370.273 446.162 370.681 446.222C371.101 446.27 371.521 446.348 371.941 446.456C372.361 446.564 372.739 446.72 373.075 446.924C373.423 447.116 373.705 447.386 373.921 447.734C374.137 448.07 374.245 448.514 374.245 449.066C374.245 449.666 374.065 450.2 373.705 450.668C373.345 451.124 372.823 451.484 372.139 451.748C371.467 452.012 370.645 452.144 369.673 452.144ZM375.978 452V442.316H378.786V452H375.978ZM377.382 440.966C376.866 440.966 376.446 440.816 376.122 440.516C375.798 440.216 375.636 439.844 375.636 439.4C375.636 438.956 375.798 438.584 376.122 438.284C376.446 437.984 376.866 437.834 377.382 437.834C377.898 437.834 378.318 437.978 378.642 438.266C378.966 438.542 379.128 438.902 379.128 439.346C379.128 439.814 378.966 440.204 378.642 440.516C378.33 440.816 377.91 440.966 377.382 440.966ZM386 452.144C384.968 452.144 384.05 451.928 383.246 451.496C382.454 451.064 381.824 450.476 381.356 449.732C380.9 448.976 380.672 448.118 380.672 447.158C380.672 446.186 380.9 445.328 381.356 444.584C381.824 443.828 382.454 443.24 383.246 442.82C384.05 442.388 384.968 442.172 386 442.172C387.02 442.172 387.932 442.388 388.736 442.82C389.54 443.24 390.17 443.822 390.626 444.566C391.082 445.31 391.31 446.174 391.31 447.158C391.31 448.118 391.082 448.976 390.626 449.732C390.17 450.476 389.54 451.064 388.736 451.496C387.932 451.928 387.02 452.144 386 452.144ZM386 449.84C386.468 449.84 386.888 449.732 387.26 449.516C387.632 449.3 387.926 448.994 388.142 448.598C388.358 448.19 388.466 447.71 388.466 447.158C388.466 446.594 388.358 446.114 388.142 445.718C387.926 445.322 387.632 445.016 387.26 444.8C386.888 444.584 386.468 444.476 386 444.476C385.532 444.476 385.112 444.584 384.74 444.8C384.368 445.016 384.068 445.322 383.84 445.718C383.624 446.114 383.516 446.594 383.516 447.158C383.516 447.71 383.624 448.19 383.84 448.598C384.068 448.994 384.368 449.3 384.74 449.516C385.112 449.732 385.532 449.84 386 449.84ZM399.073 442.172C399.841 442.172 400.525 442.328 401.125 442.64C401.737 442.94 402.217 443.408 402.565 444.044C402.913 444.668 403.087 445.472 403.087 446.456V452H400.279V446.888C400.279 446.108 400.105 445.532 399.757 445.16C399.421 444.788 398.941 444.602 398.317 444.602C397.873 444.602 397.471 444.698 397.111 444.89C396.763 445.07 396.487 445.352 396.283 445.736C396.091 446.12 395.995 446.612 395.995 447.212V452H393.187V442.316H395.869V444.998L395.365 444.188C395.713 443.54 396.211 443.042 396.859 442.694C397.507 442.346 398.245 442.172 399.073 442.172ZM408.89 452.144C408.062 452.144 407.264 452.048 406.496 451.856C405.74 451.652 405.14 451.4 404.696 451.1L405.632 449.084C406.076 449.36 406.598 449.588 407.198 449.768C407.81 449.936 408.41 450.02 408.998 450.02C409.646 450.02 410.102 449.942 410.366 449.786C410.642 449.63 410.78 449.414 410.78 449.138C410.78 448.91 410.672 448.742 410.456 448.634C410.252 448.514 409.976 448.424 409.628 448.364C409.28 448.304 408.896 448.244 408.476 448.184C408.068 448.124 407.654 448.046 407.234 447.95C406.814 447.842 406.43 447.686 406.082 447.482C405.734 447.278 405.452 447.002 405.236 446.654C405.032 446.306 404.93 445.856 404.93 445.304C404.93 444.692 405.104 444.152 405.452 443.684C405.812 443.216 406.328 442.85 407 442.586C407.672 442.31 408.476 442.172 409.412 442.172C410.072 442.172 410.744 442.244 411.428 442.388C412.112 442.532 412.682 442.742 413.138 443.018L412.202 445.016C411.734 444.74 411.26 444.554 410.78 444.458C410.312 444.35 409.856 444.296 409.412 444.296C408.788 444.296 408.332 444.38 408.044 444.548C407.756 444.716 407.612 444.932 407.612 445.196C407.612 445.436 407.714 445.616 407.918 445.736C408.134 445.856 408.416 445.952 408.764 446.024C409.112 446.096 409.49 446.162 409.898 446.222C410.318 446.27 410.738 446.348 411.158 446.456C411.578 446.564 411.956 446.72 412.292 446.924C412.64 447.116 412.922 447.386 413.138 447.734C413.354 448.07 413.462 448.514 413.462 449.066C413.462 449.666 413.282 450.2 412.922 450.668C412.562 451.124 412.04 451.484 411.356 451.748C410.684 452.012 409.862 452.144 408.89 452.144Z" fill="#222027"/>
<path d="M294.93 475L299.34 465.2H301.132L305.556 475H303.652L299.858 466.166H300.586L296.806 475H294.93ZM296.96 472.732L297.45 471.304H302.742L303.232 472.732H296.96ZM310.778 475.098C310.172 475.098 309.616 474.958 309.112 474.678C308.618 474.398 308.221 473.978 307.922 473.418C307.633 472.849 307.488 472.13 307.488 471.262C307.488 470.385 307.628 469.666 307.908 469.106C308.198 468.546 308.59 468.131 309.084 467.86C309.579 467.58 310.144 467.44 310.778 467.44C311.516 467.44 312.164 467.599 312.724 467.916C313.294 468.233 313.742 468.677 314.068 469.246C314.404 469.815 314.572 470.487 314.572 471.262C314.572 472.037 314.404 472.713 314.068 473.292C313.742 473.861 313.294 474.305 312.724 474.622C312.164 474.939 311.516 475.098 310.778 475.098ZM306.634 477.716V467.524H308.3V469.288L308.244 471.276L308.384 473.264V477.716H306.634ZM310.582 473.6C311.002 473.6 311.376 473.507 311.702 473.32C312.038 473.133 312.304 472.863 312.5 472.508C312.696 472.153 312.794 471.738 312.794 471.262C312.794 470.777 312.696 470.361 312.5 470.016C312.304 469.661 312.038 469.391 311.702 469.204C311.376 469.017 311.002 468.924 310.582 468.924C310.162 468.924 309.784 469.017 309.448 469.204C309.112 469.391 308.846 469.661 308.65 470.016C308.454 470.361 308.356 470.777 308.356 471.262C308.356 471.738 308.454 472.153 308.65 472.508C308.846 472.863 309.112 473.133 309.448 473.32C309.784 473.507 310.162 473.6 310.582 473.6ZM316.232 475V467.524H317.898V469.582L317.702 468.98C317.926 468.476 318.276 468.093 318.752 467.832C319.237 467.571 319.839 467.44 320.558 467.44V469.106C320.483 469.087 320.413 469.078 320.348 469.078C320.283 469.069 320.217 469.064 320.152 469.064C319.489 469.064 318.962 469.26 318.57 469.652C318.178 470.035 317.982 470.609 317.982 471.374V475H316.232ZM322.043 475V467.524H323.793V475H322.043ZM322.925 466.292C322.598 466.292 322.327 466.189 322.113 465.984C321.907 465.779 321.805 465.531 321.805 465.242C321.805 464.943 321.907 464.696 322.113 464.5C322.327 464.295 322.598 464.192 322.925 464.192C323.251 464.192 323.517 464.29 323.723 464.486C323.937 464.673 324.045 464.911 324.045 465.2C324.045 465.508 323.942 465.769 323.737 465.984C323.531 466.189 323.261 466.292 322.925 466.292ZM326.089 475V464.612H327.839V475H326.089ZM337.561 475.14C336.787 475.14 336.087 474.944 335.461 474.552C334.845 474.16 334.36 473.591 334.005 472.844C333.651 472.088 333.473 471.173 333.473 470.1C333.473 469.027 333.651 468.117 334.005 467.37C334.36 466.614 334.845 466.04 335.461 465.648C336.087 465.256 336.787 465.06 337.561 465.06C338.345 465.06 339.045 465.256 339.661 465.648C340.277 466.04 340.763 466.614 341.117 467.37C341.481 468.117 341.663 469.027 341.663 470.1C341.663 471.173 341.481 472.088 341.117 472.844C340.763 473.591 340.277 474.16 339.661 474.552C339.045 474.944 338.345 475.14 337.561 475.14ZM337.561 473.558C338.019 473.558 338.415 473.437 338.751 473.194C339.087 472.942 339.349 472.559 339.535 472.046C339.731 471.533 339.829 470.884 339.829 470.1C339.829 469.307 339.731 468.658 339.535 468.154C339.349 467.641 339.087 467.263 338.751 467.02C338.415 466.768 338.019 466.642 337.561 466.642C337.123 466.642 336.731 466.768 336.385 467.02C336.049 467.263 335.783 467.641 335.587 468.154C335.401 468.658 335.307 469.307 335.307 470.1C335.307 470.884 335.401 471.533 335.587 472.046C335.783 472.559 336.049 472.942 336.385 473.194C336.731 473.437 337.123 473.558 337.561 473.558ZM342.754 475V473.782L346.646 470.086C346.972 469.778 347.215 469.507 347.374 469.274C347.532 469.041 347.635 468.826 347.682 468.63C347.738 468.425 347.766 468.233 347.766 468.056C347.766 467.608 347.612 467.263 347.304 467.02C346.996 466.768 346.543 466.642 345.946 466.642C345.47 466.642 345.036 466.726 344.644 466.894C344.261 467.062 343.93 467.319 343.65 467.664L342.376 466.684C342.758 466.171 343.272 465.774 343.916 465.494C344.569 465.205 345.297 465.06 346.1 465.06C346.809 465.06 347.425 465.177 347.948 465.41C348.48 465.634 348.886 465.956 349.166 466.376C349.455 466.796 349.6 467.295 349.6 467.874C349.6 468.191 349.558 468.509 349.474 468.826C349.39 469.134 349.231 469.461 348.998 469.806C348.764 470.151 348.424 470.539 347.976 470.968L344.63 474.146L344.252 473.46H349.978V475H342.754ZM351.235 477.114L352.047 474.02L352.285 475.056C351.958 475.056 351.683 474.958 351.459 474.762C351.244 474.557 351.137 474.281 351.137 473.936C351.137 473.581 351.244 473.301 351.459 473.096C351.683 472.881 351.953 472.774 352.271 472.774C352.597 472.774 352.868 472.881 353.083 473.096C353.297 473.311 353.405 473.591 353.405 473.936C353.405 474.029 353.395 474.132 353.377 474.244C353.358 474.347 353.325 474.468 353.279 474.608C353.241 474.748 353.176 474.925 353.083 475.14L352.369 477.114H351.235ZM360.02 475V465.9L360.818 466.726H357.948V465.2H361.84V475H360.02ZM363.658 475V473.782L367.55 470.086C367.877 469.778 368.119 469.507 368.278 469.274C368.437 469.041 368.539 468.826 368.586 468.63C368.642 468.425 368.67 468.233 368.67 468.056C368.67 467.608 368.516 467.263 368.208 467.02C367.9 466.768 367.447 466.642 366.85 466.642C366.374 466.642 365.94 466.726 365.548 466.894C365.165 467.062 364.834 467.319 364.554 467.664L363.28 466.684C363.663 466.171 364.176 465.774 364.82 465.494C365.473 465.205 366.201 465.06 367.004 465.06C367.713 465.06 368.329 465.177 368.852 465.41C369.384 465.634 369.79 465.956 370.07 466.376C370.359 466.796 370.504 467.295 370.504 467.874C370.504 468.191 370.462 468.509 370.378 468.826C370.294 469.134 370.135 469.461 369.902 469.806C369.669 470.151 369.328 470.539 368.88 470.968L365.534 474.146L365.156 473.46H370.882V475H363.658ZM377.07 475V473.488L376.972 473.166V470.52C376.972 470.007 376.818 469.61 376.51 469.33C376.202 469.041 375.736 468.896 375.11 468.896C374.69 468.896 374.275 468.961 373.864 469.092C373.463 469.223 373.122 469.405 372.842 469.638L372.156 468.364C372.558 468.056 373.034 467.827 373.584 467.678C374.144 467.519 374.723 467.44 375.32 467.44C376.403 467.44 377.238 467.701 377.826 468.224C378.424 468.737 378.722 469.535 378.722 470.618V475H377.07ZM374.718 475.098C374.158 475.098 373.668 475.005 373.248 474.818C372.828 474.622 372.502 474.356 372.268 474.02C372.044 473.675 371.932 473.287 371.932 472.858C371.932 472.438 372.03 472.06 372.226 471.724C372.432 471.388 372.763 471.122 373.22 470.926C373.678 470.73 374.284 470.632 375.04 470.632H377.21V471.794H375.166C374.569 471.794 374.168 471.892 373.962 472.088C373.757 472.275 373.654 472.508 373.654 472.788C373.654 473.105 373.78 473.357 374.032 473.544C374.284 473.731 374.634 473.824 375.082 473.824C375.512 473.824 375.894 473.726 376.23 473.53C376.576 473.334 376.823 473.045 376.972 472.662L377.266 473.712C377.098 474.151 376.795 474.491 376.356 474.734C375.927 474.977 375.381 475.098 374.718 475.098ZM390.404 467.44C391.002 467.44 391.529 467.557 391.986 467.79C392.453 468.023 392.817 468.383 393.078 468.868C393.34 469.344 393.47 469.96 393.47 470.716V475H391.72V470.94C391.72 470.277 391.576 469.783 391.286 469.456C390.997 469.129 390.582 468.966 390.04 468.966C389.658 468.966 389.317 469.05 389.018 469.218C388.729 469.386 388.5 469.633 388.332 469.96C388.174 470.287 388.094 470.702 388.094 471.206V475H386.344V470.94C386.344 470.277 386.2 469.783 385.91 469.456C385.621 469.129 385.206 468.966 384.664 468.966C384.282 468.966 383.941 469.05 383.642 469.218C383.353 469.386 383.124 469.633 382.956 469.96C382.798 470.287 382.718 470.702 382.718 471.206V475H380.968V467.524H382.634V469.512L382.34 468.924C382.592 468.439 382.956 468.07 383.432 467.818C383.918 467.566 384.468 467.44 385.084 467.44C385.784 467.44 386.391 467.613 386.904 467.958C387.427 468.303 387.772 468.826 387.94 469.526L387.254 469.288C387.497 468.728 387.898 468.28 388.458 467.944C389.018 467.608 389.667 467.44 390.404 467.44ZM401.424 469.274H406.296V470.772H401.424V469.274ZM401.564 473.474H407.094V475H399.744V465.2H406.898V466.726H401.564V473.474ZM409.123 475V465.2H413.407C414.471 465.2 415.404 465.405 416.207 465.816C417.009 466.227 417.635 466.796 418.083 467.524C418.531 468.252 418.755 469.111 418.755 470.1C418.755 471.08 418.531 471.939 418.083 472.676C417.635 473.404 417.009 473.973 416.207 474.384C415.404 474.795 414.471 475 413.407 475H409.123ZM410.943 473.46H413.323C414.06 473.46 414.695 473.32 415.227 473.04C415.768 472.76 416.183 472.368 416.473 471.864C416.771 471.36 416.921 470.772 416.921 470.1C416.921 469.419 416.771 468.831 416.473 468.336C416.183 467.832 415.768 467.44 415.227 467.16C414.695 466.88 414.06 466.74 413.323 466.74H410.943V473.46ZM422.54 475V466.74H419.292V465.2H427.608V466.74H424.36V475H422.54Z" fill="#68666F"/>
<path d="M4.816 643.216C3.964 643.216 3.178 643.06 2.458 642.748C1.75 642.424 1.168 641.968 0.712 641.38L2.332 639.436C2.68 639.892 3.046 640.24 3.43 640.48C3.814 640.708 4.228 640.822 4.672 640.822C5.86 640.822 6.454 640.126 6.454 638.734V632.74H2.026V630.4H9.352V638.572C9.352 640.132 8.968 641.296 8.2 642.064C7.432 642.832 6.304 643.216 4.816 643.216ZM16.1203 643.144C15.3163 643.144 14.5963 642.988 13.9603 642.676C13.3363 642.364 12.8503 641.89 12.5023 641.254C12.1543 640.606 11.9803 639.784 11.9803 638.788V633.316H14.7883V638.374C14.7883 639.178 14.9563 639.772 15.2923 640.156C15.6403 640.528 16.1263 640.714 16.7503 640.714C17.1823 640.714 17.5663 640.624 17.9023 640.444C18.2383 640.252 18.5023 639.964 18.6943 639.58C18.8863 639.184 18.9823 638.692 18.9823 638.104V633.316H21.7903V643H19.1263V640.336L19.6123 641.11C19.2883 641.782 18.8083 642.292 18.1723 642.64C17.5483 642.976 16.8643 643.144 16.1203 643.144ZM28.5497 643.144C27.6377 643.144 26.8157 642.94 26.0837 642.532C25.3517 642.112 24.7697 641.53 24.3377 640.786C23.9177 640.042 23.7077 639.166 23.7077 638.158C23.7077 637.138 23.9177 636.256 24.3377 635.512C24.7697 634.768 25.3517 634.192 26.0837 633.784C26.8157 633.376 27.6377 633.172 28.5497 633.172C29.3657 633.172 30.0797 633.352 30.6917 633.712C31.3037 634.072 31.7777 634.618 32.1137 635.35C32.4497 636.082 32.6177 637.018 32.6177 638.158C32.6177 639.286 32.4557 640.222 32.1317 640.966C31.8077 641.698 31.3397 642.244 30.7277 642.604C30.1277 642.964 29.4017 643.144 28.5497 643.144ZM29.0357 640.84C29.4917 640.84 29.9057 640.732 30.2777 640.516C30.6497 640.3 30.9437 639.994 31.1597 639.598C31.3877 639.19 31.5017 638.71 31.5017 638.158C31.5017 637.594 31.3877 637.114 31.1597 636.718C30.9437 636.322 30.6497 636.016 30.2777 635.8C29.9057 635.584 29.4917 635.476 29.0357 635.476C28.5677 635.476 28.1477 635.584 27.7757 635.8C27.4037 636.016 27.1037 636.322 26.8757 636.718C26.6597 637.114 26.5517 637.594 26.5517 638.158C26.5517 638.71 26.6597 639.19 26.8757 639.598C27.1037 639.994 27.4037 640.3 27.7757 640.516C28.1477 640.732 28.5677 640.84 29.0357 640.84ZM31.5737 643V641.02L31.6277 638.14L31.4477 635.278V629.644H34.2557V643H31.5737ZM41.4086 646.636C40.4966 646.636 39.6146 646.522 38.7626 646.294C37.9226 646.078 37.2206 645.748 36.6566 645.304L37.7726 643.288C38.1806 643.624 38.6966 643.888 39.3206 644.08C39.9566 644.284 40.5806 644.386 41.1926 644.386C42.1886 644.386 42.9086 644.164 43.3526 643.72C43.8086 643.276 44.0366 642.616 44.0366 641.74V640.282L44.2166 637.852L44.1806 635.404V633.316H46.8446V641.38C46.8446 643.18 46.3766 644.506 45.4406 645.358C44.5046 646.21 43.1606 646.636 41.4086 646.636ZM40.9766 642.532C40.0766 642.532 39.2606 642.34 38.5286 641.956C37.8086 641.56 37.2266 641.014 36.7826 640.318C36.3506 639.61 36.1346 638.788 36.1346 637.852C36.1346 636.904 36.3506 636.082 36.7826 635.386C37.2266 634.678 37.8086 634.132 38.5286 633.748C39.2606 633.364 40.0766 633.172 40.9766 633.172C41.7926 633.172 42.5126 633.34 43.1366 633.676C43.7606 634 44.2466 634.51 44.5946 635.206C44.9426 635.89 45.1166 636.772 45.1166 637.852C45.1166 638.92 44.9426 639.802 44.5946 640.498C44.2466 641.182 43.7606 641.692 43.1366 642.028C42.5126 642.364 41.7926 642.532 40.9766 642.532ZM41.5346 640.228C42.0266 640.228 42.4646 640.132 42.8486 639.94C43.2326 639.736 43.5326 639.454 43.7486 639.094C43.9646 638.734 44.0726 638.32 44.0726 637.852C44.0726 637.372 43.9646 636.958 43.7486 636.61C43.5326 636.25 43.2326 635.974 42.8486 635.782C42.4646 635.578 42.0266 635.476 41.5346 635.476C41.0426 635.476 40.6046 635.578 40.2206 635.782C39.8366 635.974 39.5306 636.25 39.3026 636.61C39.0866 636.958 38.9786 637.372 38.9786 637.852C38.9786 638.32 39.0866 638.734 39.3026 639.094C39.5306 639.454 39.8366 639.736 40.2206 639.94C40.6046 640.132 41.0426 640.228 41.5346 640.228ZM49.4581 643V633.316H52.2661V643H49.4581ZM50.8621 631.966C50.3461 631.966 49.9261 631.816 49.6021 631.516C49.2781 631.216 49.1161 630.844 49.1161 630.4C49.1161 629.956 49.2781 629.584 49.6021 629.284C49.9261 628.984 50.3461 628.834 50.8621 628.834C51.3781 628.834 51.7981 628.978 52.1221 629.266C52.4461 629.542 52.6081 629.902 52.6081 630.346C52.6081 630.814 52.4461 631.204 52.1221 631.516C51.8101 631.816 51.3901 631.966 50.8621 631.966ZM60.7582 633.172C61.5262 633.172 62.2102 633.328 62.8102 633.64C63.4222 633.94 63.9022 634.408 64.2502 635.044C64.5982 635.668 64.7722 636.472 64.7722 637.456V643H61.9642V637.888C61.9642 637.108 61.7902 636.532 61.4422 636.16C61.1062 635.788 60.6262 635.602 60.0022 635.602C59.5582 635.602 59.1562 635.698 58.7962 635.89C58.4482 636.07 58.1722 636.352 57.9682 636.736C57.7762 637.12 57.6802 637.612 57.6802 638.212V643H54.8722V633.316H57.5542V635.998L57.0502 635.188C57.3982 634.54 57.8962 634.042 58.5442 633.694C59.1922 633.346 59.9302 633.172 60.7582 633.172ZM71.9418 646.636C71.0298 646.636 70.1478 646.522 69.2958 646.294C68.4558 646.078 67.7538 645.748 67.1898 645.304L68.3058 643.288C68.7138 643.624 69.2298 643.888 69.8538 644.08C70.4898 644.284 71.1138 644.386 71.7258 644.386C72.7218 644.386 73.4418 644.164 73.8858 643.72C74.3418 643.276 74.5698 642.616 74.5698 641.74V640.282L74.7498 637.852L74.7138 635.404V633.316H77.3778V641.38C77.3778 643.18 76.9098 644.506 75.9738 645.358C75.0378 646.21 73.6938 646.636 71.9418 646.636ZM71.5098 642.532C70.6098 642.532 69.7938 642.34 69.0618 641.956C68.3418 641.56 67.7598 641.014 67.3158 640.318C66.8838 639.61 66.6678 638.788 66.6678 637.852C66.6678 636.904 66.8838 636.082 67.3158 635.386C67.7598 634.678 68.3418 634.132 69.0618 633.748C69.7938 633.364 70.6098 633.172 71.5098 633.172C72.3258 633.172 73.0458 633.34 73.6698 633.676C74.2938 634 74.7798 634.51 75.1278 635.206C75.4758 635.89 75.6498 636.772 75.6498 637.852C75.6498 638.92 75.4758 639.802 75.1278 640.498C74.7798 641.182 74.2938 641.692 73.6698 642.028C73.0458 642.364 72.3258 642.532 71.5098 642.532ZM72.0678 640.228C72.5598 640.228 72.9978 640.132 73.3818 639.94C73.7658 639.736 74.0658 639.454 74.2818 639.094C74.4978 638.734 74.6058 638.32 74.6058 637.852C74.6058 637.372 74.4978 636.958 74.2818 636.61C74.0658 636.25 73.7658 635.974 73.3818 635.782C72.9978 635.578 72.5598 635.476 72.0678 635.476C71.5758 635.476 71.1378 635.578 70.7538 635.782C70.3698 635.974 70.0638 636.25 69.8358 636.61C69.6198 636.958 69.5118 637.372 69.5118 637.852C69.5118 638.32 69.6198 638.734 69.8358 639.094C70.0638 639.454 70.3698 639.736 70.7538 639.94C71.1378 640.132 71.5758 640.228 72.0678 640.228Z" fill="#222027"/>
<path d="M0.93 666L5.34 656.2H7.132L11.556 666H9.652L5.858 657.166H6.586L2.806 666H0.93ZM2.96 663.732L3.45 662.304H8.742L9.232 663.732H2.96ZM16.7783 666.098C16.1717 666.098 15.6163 665.958 15.1123 665.678C14.6177 665.398 14.221 664.978 13.9223 664.418C13.633 663.849 13.4883 663.13 13.4883 662.262C13.4883 661.385 13.6283 660.666 13.9083 660.106C14.1977 659.546 14.5897 659.131 15.0843 658.86C15.579 658.58 16.1437 658.44 16.7783 658.44C17.5157 658.44 18.1643 658.599 18.7243 658.916C19.2937 659.233 19.7417 659.677 20.0683 660.246C20.4043 660.815 20.5723 661.487 20.5723 662.262C20.5723 663.037 20.4043 663.713 20.0683 664.292C19.7417 664.861 19.2937 665.305 18.7243 665.622C18.1643 665.939 17.5157 666.098 16.7783 666.098ZM12.6343 668.716V658.524H14.3003V660.288L14.2443 662.276L14.3843 664.264V668.716H12.6343ZM16.5823 664.6C17.0023 664.6 17.3757 664.507 17.7023 664.32C18.0383 664.133 18.3043 663.863 18.5003 663.508C18.6963 663.153 18.7943 662.738 18.7943 662.262C18.7943 661.777 18.6963 661.361 18.5003 661.016C18.3043 660.661 18.0383 660.391 17.7023 660.204C17.3757 660.017 17.0023 659.924 16.5823 659.924C16.1623 659.924 15.7843 660.017 15.4483 660.204C15.1123 660.391 14.8463 660.661 14.6503 661.016C14.4543 661.361 14.3563 661.777 14.3563 662.262C14.3563 662.738 14.4543 663.153 14.6503 663.508C14.8463 663.863 15.1123 664.133 15.4483 664.32C15.7843 664.507 16.1623 664.6 16.5823 664.6ZM22.232 666V658.524H23.898V660.582L23.702 659.98C23.926 659.476 24.276 659.093 24.752 658.832C25.2373 658.571 25.8393 658.44 26.558 658.44V660.106C26.4833 660.087 26.4133 660.078 26.348 660.078C26.2827 660.069 26.2173 660.064 26.152 660.064C25.4893 660.064 24.962 660.26 24.57 660.652C24.178 661.035 23.982 661.609 23.982 662.374V666H22.232ZM28.0425 666V658.524H29.7925V666H28.0425ZM28.9245 657.292C28.5979 657.292 28.3272 657.189 28.1125 656.984C27.9072 656.779 27.8045 656.531 27.8045 656.242C27.8045 655.943 27.9072 655.696 28.1125 655.5C28.3272 655.295 28.5979 655.192 28.9245 655.192C29.2512 655.192 29.5172 655.29 29.7225 655.486C29.9372 655.673 30.0445 655.911 30.0445 656.2C30.0445 656.508 29.9419 656.769 29.7365 656.984C29.5312 657.189 29.2605 657.292 28.9245 657.292ZM32.0894 666V655.612H33.8394V666H32.0894ZM43.5614 666.14C42.7868 666.14 42.0868 665.944 41.4614 665.552C40.8454 665.16 40.3601 664.591 40.0054 663.844C39.6508 663.088 39.4734 662.173 39.4734 661.1C39.4734 660.027 39.6508 659.117 40.0054 658.37C40.3601 657.614 40.8454 657.04 41.4614 656.648C42.0868 656.256 42.7868 656.06 43.5614 656.06C44.3454 656.06 45.0454 656.256 45.6614 656.648C46.2774 657.04 46.7628 657.614 47.1174 658.37C47.4814 659.117 47.6634 660.027 47.6634 661.1C47.6634 662.173 47.4814 663.088 47.1174 663.844C46.7628 664.591 46.2774 665.16 45.6614 665.552C45.0454 665.944 44.3454 666.14 43.5614 666.14ZM43.5614 664.558C44.0188 664.558 44.4154 664.437 44.7514 664.194C45.0874 663.942 45.3488 663.559 45.5354 663.046C45.7314 662.533 45.8294 661.884 45.8294 661.1C45.8294 660.307 45.7314 659.658 45.5354 659.154C45.3488 658.641 45.0874 658.263 44.7514 658.02C44.4154 657.768 44.0188 657.642 43.5614 657.642C43.1228 657.642 42.7308 657.768 42.3854 658.02C42.0494 658.263 41.7834 658.641 41.5874 659.154C41.4008 659.658 41.3074 660.307 41.3074 661.1C41.3074 661.884 41.4008 662.533 41.5874 663.046C41.7834 663.559 42.0494 663.942 42.3854 664.194C42.7308 664.437 43.1228 664.558 43.5614 664.558ZM48.7537 666V664.782L52.6457 661.086C52.9723 660.778 53.215 660.507 53.3737 660.274C53.5323 660.041 53.635 659.826 53.6817 659.63C53.7377 659.425 53.7657 659.233 53.7657 659.056C53.7657 658.608 53.6117 658.263 53.3037 658.02C52.9957 657.768 52.543 657.642 51.9457 657.642C51.4697 657.642 51.0357 657.726 50.6437 657.894C50.261 658.062 49.9297 658.319 49.6497 658.664L48.3757 657.684C48.7583 657.171 49.2717 656.774 49.9157 656.494C50.569 656.205 51.297 656.06 52.0997 656.06C52.809 656.06 53.425 656.177 53.9477 656.41C54.4797 656.634 54.8857 656.956 55.1657 657.376C55.455 657.796 55.5997 658.295 55.5997 658.874C55.5997 659.191 55.5577 659.509 55.4737 659.826C55.3897 660.134 55.231 660.461 54.9977 660.806C54.7643 661.151 54.4237 661.539 53.9757 661.968L50.6297 665.146L50.2517 664.46H55.9777V666H48.7537ZM57.2348 668.114L58.0468 665.02L58.2848 666.056C57.9582 666.056 57.6828 665.958 57.4588 665.762C57.2442 665.557 57.1368 665.281 57.1368 664.936C57.1368 664.581 57.2442 664.301 57.4588 664.096C57.6828 663.881 57.9535 663.774 58.2708 663.774C58.5975 663.774 58.8682 663.881 59.0828 664.096C59.2975 664.311 59.4048 664.591 59.4048 664.936C59.4048 665.029 59.3955 665.132 59.3768 665.244C59.3582 665.347 59.3255 665.468 59.2788 665.608C59.2415 665.748 59.1762 665.925 59.0828 666.14L58.3688 668.114H57.2348ZM66.0199 666V656.9L66.8179 657.726H63.9479V656.2H67.8399V666H66.0199ZM69.658 666V664.782L73.55 661.086C73.8766 660.778 74.1193 660.507 74.278 660.274C74.4366 660.041 74.5393 659.826 74.586 659.63C74.642 659.425 74.67 659.233 74.67 659.056C74.67 658.608 74.516 658.263 74.208 658.02C73.9 657.768 73.4473 657.642 72.85 657.642C72.374 657.642 71.94 657.726 71.548 657.894C71.1653 658.062 70.834 658.319 70.554 658.664L69.28 657.684C69.6626 657.171 70.176 656.774 70.82 656.494C71.4733 656.205 72.2013 656.06 73.004 656.06C73.7133 656.06 74.3293 656.177 74.852 656.41C75.384 656.634 75.79 656.956 76.07 657.376C76.3593 657.796 76.504 658.295 76.504 658.874C76.504 659.191 76.462 659.509 76.378 659.826C76.294 660.134 76.1353 660.461 75.902 660.806C75.6686 661.151 75.328 661.539 74.88 661.968L71.534 665.146L71.156 664.46H76.882V666H69.658ZM83.0704 666V664.488L82.9724 664.166V661.52C82.9724 661.007 82.8184 660.61 82.5104 660.33C82.2024 660.041 81.7357 659.896 81.1104 659.896C80.6904 659.896 80.2751 659.961 79.8644 660.092C79.4631 660.223 79.1224 660.405 78.8424 660.638L78.1564 659.364C78.5577 659.056 79.0337 658.827 79.5844 658.678C80.1444 658.519 80.7231 658.44 81.3204 658.44C82.4031 658.44 83.2384 658.701 83.8264 659.224C84.4237 659.737 84.7224 660.535 84.7224 661.618V666H83.0704ZM80.7184 666.098C80.1584 666.098 79.6684 666.005 79.2484 665.818C78.8284 665.622 78.5017 665.356 78.2684 665.02C78.0444 664.675 77.9324 664.287 77.9324 663.858C77.9324 663.438 78.0304 663.06 78.2264 662.724C78.4317 662.388 78.7631 662.122 79.2204 661.926C79.6777 661.73 80.2844 661.632 81.0404 661.632H83.2104V662.794H81.1664C80.5691 662.794 80.1677 662.892 79.9624 663.088C79.7571 663.275 79.6544 663.508 79.6544 663.788C79.6544 664.105 79.7804 664.357 80.0324 664.544C80.2844 664.731 80.6344 664.824 81.0824 664.824C81.5117 664.824 81.8944 664.726 82.2304 664.53C82.5757 664.334 82.8231 664.045 82.9724 663.662L83.2664 664.712C83.0984 665.151 82.7951 665.491 82.3564 665.734C81.9271 665.977 81.3811 666.098 80.7184 666.098ZM96.4043 658.44C97.0016 658.44 97.529 658.557 97.9863 658.79C98.453 659.023 98.817 659.383 99.0783 659.868C99.3396 660.344 99.4703 660.96 99.4703 661.716V666H97.7203V661.94C97.7203 661.277 97.5756 660.783 97.2863 660.456C96.997 660.129 96.5816 659.966 96.0403 659.966C95.6576 659.966 95.317 660.05 95.0183 660.218C94.729 660.386 94.5003 660.633 94.3323 660.96C94.1736 661.287 94.0943 661.702 94.0943 662.206V666H92.3443V661.94C92.3443 661.277 92.1996 660.783 91.9103 660.456C91.621 660.129 91.2056 659.966 90.6643 659.966C90.2816 659.966 89.941 660.05 89.6423 660.218C89.353 660.386 89.1243 660.633 88.9563 660.96C88.7976 661.287 88.7183 661.702 88.7183 662.206V666H86.9683V658.524H88.6343V660.512L88.3403 659.924C88.5923 659.439 88.9563 659.07 89.4323 658.818C89.9176 658.566 90.4683 658.44 91.0843 658.44C91.7843 658.44 92.391 658.613 92.9043 658.958C93.427 659.303 93.7723 659.826 93.9403 660.526L93.2543 660.288C93.497 659.728 93.8983 659.28 94.4583 658.944C95.0183 658.608 95.667 658.44 96.4043 658.44ZM107.424 660.274H112.296V661.772H107.424V660.274ZM107.564 664.474H113.094V666H105.744V656.2H112.898V657.726H107.564V664.474ZM115.123 666V656.2H119.407C120.471 656.2 121.404 656.405 122.207 656.816C123.009 657.227 123.635 657.796 124.083 658.524C124.531 659.252 124.755 660.111 124.755 661.1C124.755 662.08 124.531 662.939 124.083 663.676C123.635 664.404 123.009 664.973 122.207 665.384C121.404 665.795 120.471 666 119.407 666H115.123ZM116.943 664.46H119.323C120.06 664.46 120.695 664.32 121.227 664.04C121.768 663.76 122.183 663.368 122.473 662.864C122.771 662.36 122.921 661.772 122.921 661.1C122.921 660.419 122.771 659.831 122.473 659.336C122.183 658.832 121.768 658.44 121.227 658.16C120.695 657.88 120.06 657.74 119.323 657.74H116.943V664.46ZM128.54 666V657.74H125.292V656.2H133.608V657.74H130.36V666H128.54Z" fill="#68666F"/>
<path d="M294.838 834L300.454 821.4H303.334L308.968 834H305.908L301.3 822.876H302.452L297.826 834H294.838ZM297.646 831.3L298.42 829.086H304.9L305.692 831.3H297.646ZM315.963 824.172C316.731 824.172 317.415 824.328 318.015 824.64C318.627 824.94 319.107 825.408 319.455 826.044C319.803 826.668 319.977 827.472 319.977 828.456V834H317.169V828.888C317.169 828.108 316.995 827.532 316.647 827.16C316.311 826.788 315.831 826.602 315.207 826.602C314.763 826.602 314.361 826.698 314.001 826.89C313.653 827.07 313.377 827.352 313.173 827.736C312.981 828.12 312.885 828.612 312.885 829.212V834H310.077V824.316H312.759V826.998L312.255 826.188C312.603 825.54 313.101 825.042 313.749 824.694C314.397 824.346 315.135 824.172 315.963 824.172ZM328.409 824.172C329.177 824.172 329.861 824.328 330.461 824.64C331.073 824.94 331.553 825.408 331.901 826.044C332.249 826.668 332.423 827.472 332.423 828.456V834H329.615V828.888C329.615 828.108 329.441 827.532 329.093 827.16C328.757 826.788 328.277 826.602 327.653 826.602C327.209 826.602 326.807 826.698 326.447 826.89C326.099 827.07 325.823 827.352 325.619 827.736C325.427 828.12 325.331 828.612 325.331 829.212V834H322.523V824.316H325.205V826.998L324.701 826.188C325.049 825.54 325.547 825.042 326.195 824.694C326.843 824.346 327.581 824.172 328.409 824.172ZM339.646 834.144C338.614 834.144 337.696 833.928 336.892 833.496C336.1 833.064 335.47 832.476 335.002 831.732C334.546 830.976 334.318 830.118 334.318 829.158C334.318 828.186 334.546 827.328 335.002 826.584C335.47 825.828 336.1 825.24 336.892 824.82C337.696 824.388 338.614 824.172 339.646 824.172C340.666 824.172 341.578 824.388 342.382 824.82C343.186 825.24 343.816 825.822 344.272 826.566C344.728 827.31 344.956 828.174 344.956 829.158C344.956 830.118 344.728 830.976 344.272 831.732C343.816 832.476 343.186 833.064 342.382 833.496C341.578 833.928 340.666 834.144 339.646 834.144ZM339.646 831.84C340.114 831.84 340.534 831.732 340.906 831.516C341.278 831.3 341.572 830.994 341.788 830.598C342.004 830.19 342.112 829.71 342.112 829.158C342.112 828.594 342.004 828.114 341.788 827.718C341.572 827.322 341.278 827.016 340.906 826.8C340.534 826.584 340.114 826.476 339.646 826.476C339.178 826.476 338.758 826.584 338.386 826.8C338.014 827.016 337.714 827.322 337.486 827.718C337.27 828.114 337.162 828.594 337.162 829.158C337.162 829.71 337.27 830.19 337.486 830.598C337.714 830.994 338.014 831.3 338.386 831.516C338.758 831.732 339.178 831.84 339.646 831.84ZM350.919 834.144C350.115 834.144 349.395 833.988 348.759 833.676C348.135 833.364 347.649 832.89 347.301 832.254C346.953 831.606 346.779 830.784 346.779 829.788V824.316H349.587V829.374C349.587 830.178 349.755 830.772 350.091 831.156C350.439 831.528 350.925 831.714 351.549 831.714C351.981 831.714 352.365 831.624 352.701 831.444C353.037 831.252 353.301 830.964 353.493 830.58C353.685 830.184 353.781 829.692 353.781 829.104V824.316H356.589V834H353.925V831.336L354.411 832.11C354.087 832.782 353.607 833.292 352.971 833.64C352.347 833.976 351.663 834.144 350.919 834.144ZM365.077 824.172C365.845 824.172 366.529 824.328 367.129 824.64C367.741 824.94 368.221 825.408 368.569 826.044C368.917 826.668 369.091 827.472 369.091 828.456V834H366.283V828.888C366.283 828.108 366.109 827.532 365.761 827.16C365.425 826.788 364.945 826.602 364.321 826.602C363.877 826.602 363.475 826.698 363.115 826.89C362.767 827.07 362.491 827.352 362.287 827.736C362.095 828.12 361.999 828.612 361.999 829.212V834H359.191V824.316H361.873V826.998L361.369 826.188C361.717 825.54 362.215 825.042 362.863 824.694C363.511 824.346 364.249 824.172 365.077 824.172ZM376.386 834.144C375.342 834.144 374.412 833.934 373.596 833.514C372.78 833.082 372.138 832.488 371.67 831.732C371.214 830.976 370.986 830.118 370.986 829.158C370.986 828.186 371.214 827.328 371.67 826.584C372.138 825.828 372.78 825.24 373.596 824.82C374.412 824.388 375.342 824.172 376.386 824.172C377.406 824.172 378.294 824.388 379.05 824.82C379.806 825.24 380.364 825.846 380.724 826.638L378.546 827.808C378.294 827.352 377.976 827.016 377.592 826.8C377.22 826.584 376.812 826.476 376.368 826.476C375.888 826.476 375.456 826.584 375.072 826.8C374.688 827.016 374.382 827.322 374.154 827.718C373.938 828.114 373.83 828.594 373.83 829.158C373.83 829.722 373.938 830.202 374.154 830.598C374.382 830.994 374.688 831.3 375.072 831.516C375.456 831.732 375.888 831.84 376.368 831.84C376.812 831.84 377.22 831.738 377.592 831.534C377.976 831.318 378.294 830.976 378.546 830.508L380.724 831.696C380.364 832.476 379.806 833.082 379.05 833.514C378.294 833.934 377.406 834.144 376.386 834.144ZM387.024 834.144C385.92 834.144 384.948 833.928 384.108 833.496C383.28 833.064 382.638 832.476 382.182 831.732C381.726 830.976 381.498 830.118 381.498 829.158C381.498 828.186 381.72 827.328 382.164 826.584C382.62 825.828 383.238 825.24 384.018 824.82C384.798 824.388 385.68 824.172 386.664 824.172C387.612 824.172 388.464 824.376 389.22 824.784C389.988 825.18 390.594 825.756 391.038 826.512C391.482 827.256 391.704 828.15 391.704 829.194C391.704 829.302 391.698 829.428 391.686 829.572C391.674 829.704 391.662 829.83 391.65 829.95H383.784V828.312H390.174L389.094 828.798C389.094 828.294 388.992 827.856 388.788 827.484C388.584 827.112 388.302 826.824 387.942 826.62C387.582 826.404 387.162 826.296 386.682 826.296C386.202 826.296 385.776 826.404 385.404 826.62C385.044 826.824 384.762 827.118 384.558 827.502C384.354 827.874 384.252 828.318 384.252 828.834V829.266C384.252 829.794 384.366 830.262 384.594 830.67C384.834 831.066 385.164 831.372 385.584 831.588C386.016 831.792 386.52 831.894 387.096 831.894C387.612 831.894 388.062 831.816 388.446 831.66C388.842 831.504 389.202 831.27 389.526 830.958L391.02 832.578C390.576 833.082 390.018 833.472 389.346 833.748C388.674 834.012 387.9 834.144 387.024 834.144ZM405.975 824.172C406.743 824.172 407.421 824.328 408.009 824.64C408.609 824.94 409.077 825.408 409.413 826.044C409.761 826.668 409.935 827.472 409.935 828.456V834H407.127V828.888C407.127 828.108 406.965 827.532 406.641 827.16C406.317 826.788 405.861 826.602 405.273 826.602C404.865 826.602 404.499 826.698 404.175 826.89C403.851 827.07 403.599 827.346 403.419 827.718C403.239 828.09 403.149 828.564 403.149 829.14V834H400.341V828.888C400.341 828.108 400.179 827.532 399.855 827.16C399.543 826.788 399.093 826.602 398.505 826.602C398.097 826.602 397.731 826.698 397.407 826.89C397.083 827.07 396.831 827.346 396.651 827.718C396.471 828.09 396.381 828.564 396.381 829.14V834H393.573V824.316H396.255V826.962L395.751 826.188C396.087 825.528 396.561 825.03 397.173 824.694C397.797 824.346 398.505 824.172 399.297 824.172C400.185 824.172 400.959 824.4 401.619 824.856C402.291 825.3 402.735 825.984 402.951 826.908L401.961 826.638C402.285 825.882 402.801 825.282 403.509 824.838C404.229 824.394 405.051 824.172 405.975 824.172ZM417.329 834.144C416.225 834.144 415.253 833.928 414.413 833.496C413.585 833.064 412.943 832.476 412.487 831.732C412.031 830.976 411.803 830.118 411.803 829.158C411.803 828.186 412.025 827.328 412.469 826.584C412.925 825.828 413.543 825.24 414.323 824.82C415.103 824.388 415.985 824.172 416.969 824.172C417.917 824.172 418.769 824.376 419.525 824.784C420.293 825.18 420.899 825.756 421.343 826.512C421.787 827.256 422.009 828.15 422.009 829.194C422.009 829.302 422.003 829.428 421.991 829.572C421.979 829.704 421.967 829.83 421.955 829.95H414.089V828.312H420.479L419.399 828.798C419.399 828.294 419.297 827.856 419.093 827.484C418.889 827.112 418.607 826.824 418.247 826.62C417.887 826.404 417.467 826.296 416.987 826.296C416.507 826.296 416.081 826.404 415.709 826.62C415.349 826.824 415.067 827.118 414.863 827.502C414.659 827.874 414.557 828.318 414.557 828.834V829.266C414.557 829.794 414.671 830.262 414.899 830.67C415.139 831.066 415.469 831.372 415.889 831.588C416.321 831.792 416.825 831.894 417.401 831.894C417.917 831.894 418.367 831.816 418.751 831.66C419.147 831.504 419.507 831.27 419.831 830.958L421.325 832.578C420.881 833.082 420.323 833.472 419.651 833.748C418.979 834.012 418.205 834.144 417.329 834.144ZM429.764 824.172C430.532 824.172 431.216 824.328 431.816 824.64C432.428 824.94 432.908 825.408 433.256 826.044C433.604 826.668 433.778 827.472 433.778 828.456V834H430.97V828.888C430.97 828.108 430.796 827.532 430.448 827.16C430.112 826.788 429.632 826.602 429.008 826.602C428.564 826.602 428.162 826.698 427.802 826.89C427.454 827.07 427.178 827.352 426.974 827.736C426.782 828.12 426.686 828.612 426.686 829.212V834H423.878V824.316H426.56V826.998L426.056 826.188C426.404 825.54 426.902 825.042 427.55 824.694C428.198 824.346 428.936 824.172 429.764 824.172ZM440.283 834.144C439.143 834.144 438.255 833.856 437.619 833.28C436.983 832.692 436.665 831.822 436.665 830.67V822.174H439.473V830.634C439.473 831.042 439.581 831.36 439.797 831.588C440.013 831.804 440.307 831.912 440.679 831.912C441.123 831.912 441.501 831.792 441.813 831.552L442.569 833.532C442.281 833.736 441.933 833.892 441.525 834C441.129 834.096 440.715 834.144 440.283 834.144ZM435.171 826.692V824.532H441.885V826.692H435.171Z" fill="#222027"/>
<path d="M294.93 857L299.34 847.2H301.132L305.556 857H303.652L299.858 848.166H300.586L296.806 857H294.93ZM296.96 854.732L297.45 853.304H302.742L303.232 854.732H296.96ZM310.778 857.098C310.172 857.098 309.616 856.958 309.112 856.678C308.618 856.398 308.221 855.978 307.922 855.418C307.633 854.849 307.488 854.13 307.488 853.262C307.488 852.385 307.628 851.666 307.908 851.106C308.198 850.546 308.59 850.131 309.084 849.86C309.579 849.58 310.144 849.44 310.778 849.44C311.516 849.44 312.164 849.599 312.724 849.916C313.294 850.233 313.742 850.677 314.068 851.246C314.404 851.815 314.572 852.487 314.572 853.262C314.572 854.037 314.404 854.713 314.068 855.292C313.742 855.861 313.294 856.305 312.724 856.622C312.164 856.939 311.516 857.098 310.778 857.098ZM306.634 859.716V849.524H308.3V851.288L308.244 853.276L308.384 855.264V859.716H306.634ZM310.582 855.6C311.002 855.6 311.376 855.507 311.702 855.32C312.038 855.133 312.304 854.863 312.5 854.508C312.696 854.153 312.794 853.738 312.794 853.262C312.794 852.777 312.696 852.361 312.5 852.016C312.304 851.661 312.038 851.391 311.702 851.204C311.376 851.017 311.002 850.924 310.582 850.924C310.162 850.924 309.784 851.017 309.448 851.204C309.112 851.391 308.846 851.661 308.65 852.016C308.454 852.361 308.356 852.777 308.356 853.262C308.356 853.738 308.454 854.153 308.65 854.508C308.846 854.863 309.112 855.133 309.448 855.32C309.784 855.507 310.162 855.6 310.582 855.6ZM316.232 857V849.524H317.898V851.582L317.702 850.98C317.926 850.476 318.276 850.093 318.752 849.832C319.237 849.571 319.839 849.44 320.558 849.44V851.106C320.483 851.087 320.413 851.078 320.348 851.078C320.283 851.069 320.217 851.064 320.152 851.064C319.489 851.064 318.962 851.26 318.57 851.652C318.178 852.035 317.982 852.609 317.982 853.374V857H316.232ZM322.043 857V849.524H323.793V857H322.043ZM322.925 848.292C322.598 848.292 322.327 848.189 322.113 847.984C321.907 847.779 321.805 847.531 321.805 847.242C321.805 846.943 321.907 846.696 322.113 846.5C322.327 846.295 322.598 846.192 322.925 846.192C323.251 846.192 323.517 846.29 323.723 846.486C323.937 846.673 324.045 846.911 324.045 847.2C324.045 847.508 323.942 847.769 323.737 847.984C323.531 848.189 323.261 848.292 322.925 848.292ZM326.089 857V846.612H327.839V857H326.089ZM337.561 857.14C336.787 857.14 336.087 856.944 335.461 856.552C334.845 856.16 334.36 855.591 334.005 854.844C333.651 854.088 333.473 853.173 333.473 852.1C333.473 851.027 333.651 850.117 334.005 849.37C334.36 848.614 334.845 848.04 335.461 847.648C336.087 847.256 336.787 847.06 337.561 847.06C338.345 847.06 339.045 847.256 339.661 847.648C340.277 848.04 340.763 848.614 341.117 849.37C341.481 850.117 341.663 851.027 341.663 852.1C341.663 853.173 341.481 854.088 341.117 854.844C340.763 855.591 340.277 856.16 339.661 856.552C339.045 856.944 338.345 857.14 337.561 857.14ZM337.561 855.558C338.019 855.558 338.415 855.437 338.751 855.194C339.087 854.942 339.349 854.559 339.535 854.046C339.731 853.533 339.829 852.884 339.829 852.1C339.829 851.307 339.731 850.658 339.535 850.154C339.349 849.641 339.087 849.263 338.751 849.02C338.415 848.768 338.019 848.642 337.561 848.642C337.123 848.642 336.731 848.768 336.385 849.02C336.049 849.263 335.783 849.641 335.587 850.154C335.401 850.658 335.307 851.307 335.307 852.1C335.307 852.884 335.401 853.533 335.587 854.046C335.783 854.559 336.049 854.942 336.385 855.194C336.731 855.437 337.123 855.558 337.561 855.558ZM342.754 857V855.782L346.646 852.086C346.972 851.778 347.215 851.507 347.374 851.274C347.532 851.041 347.635 850.826 347.682 850.63C347.738 850.425 347.766 850.233 347.766 850.056C347.766 849.608 347.612 849.263 347.304 849.02C346.996 848.768 346.543 848.642 345.946 848.642C345.47 848.642 345.036 848.726 344.644 848.894C344.261 849.062 343.93 849.319 343.65 849.664L342.376 848.684C342.758 848.171 343.272 847.774 343.916 847.494C344.569 847.205 345.297 847.06 346.1 847.06C346.809 847.06 347.425 847.177 347.948 847.41C348.48 847.634 348.886 847.956 349.166 848.376C349.455 848.796 349.6 849.295 349.6 849.874C349.6 850.191 349.558 850.509 349.474 850.826C349.39 851.134 349.231 851.461 348.998 851.806C348.764 852.151 348.424 852.539 347.976 852.968L344.63 856.146L344.252 855.46H349.978V857H342.754ZM351.235 859.114L352.047 856.02L352.285 857.056C351.958 857.056 351.683 856.958 351.459 856.762C351.244 856.557 351.137 856.281 351.137 855.936C351.137 855.581 351.244 855.301 351.459 855.096C351.683 854.881 351.953 854.774 352.271 854.774C352.597 854.774 352.868 854.881 353.083 855.096C353.297 855.311 353.405 855.591 353.405 855.936C353.405 856.029 353.395 856.132 353.377 856.244C353.358 856.347 353.325 856.468 353.279 856.608C353.241 856.748 353.176 856.925 353.083 857.14L352.369 859.114H351.235ZM360.02 857V847.9L360.818 848.726H357.948V847.2H361.84V857H360.02ZM363.658 857V855.782L367.55 852.086C367.877 851.778 368.119 851.507 368.278 851.274C368.437 851.041 368.539 850.826 368.586 850.63C368.642 850.425 368.67 850.233 368.67 850.056C368.67 849.608 368.516 849.263 368.208 849.02C367.9 848.768 367.447 848.642 366.85 848.642C366.374 848.642 365.94 848.726 365.548 848.894C365.165 849.062 364.834 849.319 364.554 849.664L363.28 848.684C363.663 848.171 364.176 847.774 364.82 847.494C365.473 847.205 366.201 847.06 367.004 847.06C367.713 847.06 368.329 847.177 368.852 847.41C369.384 847.634 369.79 847.956 370.07 848.376C370.359 848.796 370.504 849.295 370.504 849.874C370.504 850.191 370.462 850.509 370.378 850.826C370.294 851.134 370.135 851.461 369.902 851.806C369.669 852.151 369.328 852.539 368.88 852.968L365.534 856.146L365.156 855.46H370.882V857H363.658ZM377.07 857V855.488L376.972 855.166V852.52C376.972 852.007 376.818 851.61 376.51 851.33C376.202 851.041 375.736 850.896 375.11 850.896C374.69 850.896 374.275 850.961 373.864 851.092C373.463 851.223 373.122 851.405 372.842 851.638L372.156 850.364C372.558 850.056 373.034 849.827 373.584 849.678C374.144 849.519 374.723 849.44 375.32 849.44C376.403 849.44 377.238 849.701 377.826 850.224C378.424 850.737 378.722 851.535 378.722 852.618V857H377.07ZM374.718 857.098C374.158 857.098 373.668 857.005 373.248 856.818C372.828 856.622 372.502 856.356 372.268 856.02C372.044 855.675 371.932 855.287 371.932 854.858C371.932 854.438 372.03 854.06 372.226 853.724C372.432 853.388 372.763 853.122 373.22 852.926C373.678 852.73 374.284 852.632 375.04 852.632H377.21V853.794H375.166C374.569 853.794 374.168 853.892 373.962 854.088C373.757 854.275 373.654 854.508 373.654 854.788C373.654 855.105 373.78 855.357 374.032 855.544C374.284 855.731 374.634 855.824 375.082 855.824C375.512 855.824 375.894 855.726 376.23 855.53C376.576 855.334 376.823 855.045 376.972 854.662L377.266 855.712C377.098 856.151 376.795 856.491 376.356 856.734C375.927 856.977 375.381 857.098 374.718 857.098ZM390.404 849.44C391.002 849.44 391.529 849.557 391.986 849.79C392.453 850.023 392.817 850.383 393.078 850.868C393.34 851.344 393.47 851.96 393.47 852.716V857H391.72V852.94C391.72 852.277 391.576 851.783 391.286 851.456C390.997 851.129 390.582 850.966 390.04 850.966C389.658 850.966 389.317 851.05 389.018 851.218C388.729 851.386 388.5 851.633 388.332 851.96C388.174 852.287 388.094 852.702 388.094 853.206V857H386.344V852.94C386.344 852.277 386.2 851.783 385.91 851.456C385.621 851.129 385.206 850.966 384.664 850.966C384.282 850.966 383.941 851.05 383.642 851.218C383.353 851.386 383.124 851.633 382.956 851.96C382.798 852.287 382.718 852.702 382.718 853.206V857H380.968V849.524H382.634V851.512L382.34 850.924C382.592 850.439 382.956 850.07 383.432 849.818C383.918 849.566 384.468 849.44 385.084 849.44C385.784 849.44 386.391 849.613 386.904 849.958C387.427 850.303 387.772 850.826 387.94 851.526L387.254 851.288C387.497 850.728 387.898 850.28 388.458 849.944C389.018 849.608 389.667 849.44 390.404 849.44ZM401.424 851.274H406.296V852.772H401.424V851.274ZM401.564 855.474H407.094V857H399.744V847.2H406.898V848.726H401.564V855.474ZM409.123 857V847.2H413.407C414.471 847.2 415.404 847.405 416.207 847.816C417.009 848.227 417.635 848.796 418.083 849.524C418.531 850.252 418.755 851.111 418.755 852.1C418.755 853.08 418.531 853.939 418.083 854.676C417.635 855.404 417.009 855.973 416.207 856.384C415.404 856.795 414.471 857 413.407 857H409.123ZM410.943 855.46H413.323C414.06 855.46 414.695 855.32 415.227 855.04C415.768 854.76 416.183 854.368 416.473 853.864C416.771 853.36 416.921 852.772 416.921 852.1C416.921 851.419 416.771 850.831 416.473 850.336C416.183 849.832 415.768 849.44 415.227 849.16C414.695 848.88 414.06 848.74 413.323 848.74H410.943V855.46ZM422.54 857V848.74H419.292V847.2H427.608V848.74H424.36V857H422.54Z" fill="#68666F"/>
</svg>
